<svg width="19" height="22" viewBox="0 0 19 22" fill="none" xmlns="http://www.w3.org/2000/svg">
<path d="M0.356301 21.2316C0.710771 21.7169 1.27375 22 1.87844 22H5.48569C6.27804 22 6.96613 21.5349 7.23719 20.807L10.5734 12.0312L13.5551 19.796C13.8262 20.5037 14.5351 20.9688 15.3066 20.9688C15.3066 20.9688 15.3066 20.9688 15.3275 20.9688C16.1198 20.9688 16.8079 20.4835 17.079 19.7757L18.893 14.9026C19.039 14.4982 19.039 14.0533 18.8722 13.6287C18.8722 13.6085 18.8513 13.5882 18.8305 13.5478L14.2432 1.19301C13.9721 0.465074 13.2632 0 12.4708 0H12.45H8.63422C7.84188 0 7.13294 0.485294 6.86187 1.19301L0.0643837 19.5735C-0.0815746 20.1397 0.0226817 20.7463 0.356301 21.2316Z" fill="#18191F"/>
</svg>
