<svg width="19" height="22" viewBox="0 0 19 22" fill="none" xmlns="http://www.w3.org/2000/svg">
<path d="M0.341168 21.2316C0.69474 21.7169 1.2563 22 1.85945 22H5.49915C6.28949 22 6.97583 21.5349 7.24621 20.807L10.5739 12.0312L13.5689 19.8162C13.8393 20.5239 14.5464 20.989 15.316 20.989C15.316 20.989 15.316 20.989 15.3368 20.989C16.1271 20.989 16.8134 20.5037 17.0838 19.796L18.8933 14.9228C19.0389 14.4982 19.0389 14.0533 18.8725 13.6287C18.8517 13.5882 18.8517 13.568 18.8309 13.5478L14.2552 1.19301C13.9849 0.465074 13.2777 0 12.4874 0H12.4666H8.6605C7.87016 0 7.14222 0.485294 6.87184 1.21324L2.25461 13.75L0.112385 19.5735C-0.095598 20.1397 -0.0124034 20.7463 0.341168 21.2316Z" fill="#18191F"/>
</svg>
