<svg width="20" height="22" viewBox="0 0 20 22" fill="none" xmlns="http://www.w3.org/2000/svg">
<path d="M0.365713 21.2309C0.7386 21.7167 1.33084 22 1.96694 22H5.76161C6.59512 22 7.31896 21.5345 7.60411 20.8059L11.1136 12.0221L14.2722 19.8142C14.5574 20.5225 15.3031 20.988 16.1147 20.988C16.1147 20.988 16.1147 20.988 16.1366 20.988C16.9702 20.988 17.694 20.5023 17.9791 19.7939L19.8874 14.9163C20.041 14.5115 20.041 14.046 19.8655 13.6412C19.8436 13.6007 19.8436 13.5805 19.8216 13.5603L14.996 1.19411C14.7109 0.465502 13.9651 0 13.1316 0H13.1097H9.09566C8.45956 0 7.82346 0.283349 7.47251 0.789329C7.31896 0.991721 7.20929 1.21435 7.16542 1.43698L7.14349 1.47746C7.12155 1.51794 7.12155 1.55842 7.09962 1.5989L0.102503 19.6118C-0.0949079 20.138 -0.00717381 20.7452 0.365713 21.2309Z" fill="#18191F"/>
</svg>
