<svg width="300" height="300" viewBox="0 0 300 300" fill="none" xmlns="http://www.w3.org/2000/svg">
<circle cx="150.296" cy="122.296" r="122.296" fill="#F95A2C"/>
<path fill-rule="evenodd" clip-rule="evenodd" d="M109.279 147.836C107.732 148.702 106.447 149.294 105.238 149.698L103.458 150.292L105.132 151.138C106.268 151.713 107.349 152.447 108.436 153.381L109.275 154.102L109.679 153.074C110.211 151.724 110.47 150.188 110.448 148.509L110.431 147.192L109.279 147.836ZM183.598 152.197C182.15 154.805 180.402 157.373 178.712 159.856C174.981 165.337 171.123 171.004 169.935 177.781C169.797 178.624 169.737 181.59 169.737 181.59L170.843 181.141C174.536 179.64 178.454 178.523 182.243 177.443C183.707 177.025 185.221 176.594 186.705 176.145C187.31 175.983 187.911 175.795 188.492 175.612C189.903 175.169 191.236 174.751 192.637 174.68L193.064 174.658L193.278 174.289C195.208 170.951 193.76 167.77 192.102 164.796C191.106 162.629 189.826 160.593 188.586 158.623C187.302 156.582 185.974 154.471 185.004 152.262L184.367 150.812L183.598 152.197ZM112.34 179.847C114.534 182.143 116.573 184.476 118.399 186.781L119.786 186.145C119.116 182.74 117.035 180.342 113.237 178.596L112.34 179.847ZM185.768 231.142C185.548 231.142 185.342 231.227 185.187 231.381C185.031 231.538 184.945 231.749 184.945 231.975L185.768 231.973V231.142ZM94.4322 287.911C93.1427 285.702 92.9532 282.233 94.8858 280.352C94.2358 276.29 95.5128 271.752 98.341 268.518L98.3475 268.528C102.547 262.247 102.855 260.009 99.7872 252.988C94.3041 252.779 88.6563 252.717 83.3026 251.437L83.5028 250.242C83.3047 250.189 82.2924 249.924 82.0751 249.868C82.1041 250.091 82.255 251.105 82.2513 251.308C82.0013 251.582 81.3968 251.835 81.2844 251.298C77.9165 236.92 74.9023 222.828 71.6273 208.472C68.1996 193.983 61.3063 170.808 78.1798 162.823L77.8314 161.338C76.8996 161.339 76.5252 160.325 76.0981 158.892C74.1942 153.766 77.8962 148.741 81.358 145.57C86.0899 140.839 90.4553 135.586 94.6782 130.508C106.724 115.881 123.115 96.3612 144.066 99.6774L143.996 100.539C147.273 100.951 150.695 101.816 154.014 101.213C165.344 99.2529 177.67 103.688 184.639 112.793L184.895 111.096C184.919 110.936 184.976 110.788 185.23 110.788C185.562 110.776 185.737 111.048 185.86 111.298C197.887 116.046 202.87 131.501 206.713 142.095C207.204 143.885 207.065 144.415 207.022 144.52L206.325 144.936C213.573 154.568 217.556 166.153 220.973 177.138C222.103 180.067 222.22 182.096 220.334 183.867C232.771 191.332 242.531 202.966 237.013 216.228C229.811 229.134 210.742 237.322 196.419 244.734C190.731 247.812 182.459 249.451 177.225 254.492C176.875 255.008 176.373 255.511 176.069 255.47C173.64 255.829 170.025 240.673 170.574 239.46C168.01 240.375 165.158 240.327 162.476 240.805C162.716 241.332 163.503 242.046 162.914 242.633C162.954 244.413 162.68 246.337 162.288 248.151C165.506 247.636 165.433 249.322 162.337 248.43C162.253 249.216 162.038 251.22 161.956 251.98C162.88 251.574 164.72 251.289 165.364 251.924C165.101 252.77 162.821 251.973 161.943 252.224C161.429 256.029 161.262 259.769 160.901 263.564C163.642 266.171 167.922 266.787 170.368 269.607C172.44 271.754 172.141 275.356 169.71 277.083C171.199 278.827 170.007 281.722 167.833 282.195C164.872 282.886 161.776 281.931 158.856 281.129C154.002 279.532 148.918 277.043 143.315 273.519C141.099 272.14 139.448 269.974 138.663 267.416C132.979 249.917 131.46 238.027 134.143 232.059C135.674 230.903 137.381 231.616 138.795 230.985C139.468 230.685 140.076 230.28 140.565 228.846C133.191 228.123 122.441 229.467 116.529 225.937L116.737 225.495C116.191 225.147 114.992 223.691 114.536 223.223C115.358 233.105 116.019 243.243 116.346 253.091C117.431 254.913 118.352 256.798 119.362 258.902C120.065 259.592 121.296 260.774 120.574 261.556C120.574 261.556 126.643 275.753 128.498 282.929C130.264 283.004 130.98 285.992 130.913 287.976C130.645 291.588 126.004 291.972 121.936 292.326C119.152 292.617 116.29 292.768 113.47 292.768C108.375 292.772 95.6374 292.422 94.4322 287.911Z" fill="white"/>
<path fill-rule="evenodd" clip-rule="evenodd" d="M166.65 238.754C164.646 239.225 162.626 239.616 160.611 240.036C160.093 240.262 157.493 240.299 157.967 241.146C157.965 241.149 157.963 241.151 157.961 241.153C158.49 241.559 159.207 241.329 159.845 241.382C154.888 243.408 151.489 239.234 152.401 234.469C152.531 233.618 152.698 232.65 153.066 231.872C153.261 231.524 154.658 228.838 154.905 229.754C154.711 229.87 155.259 229.918 155.182 229.503C172.203 229.314 168.012 221.503 169.627 238.089C168.626 238.164 167.626 238.525 166.65 238.754ZM162.513 245.995C162.42 246.41 162.316 246.834 162.195 247.245C158.866 247.823 156.417 249.508 161.689 249.191C161.537 249.812 161.395 250.436 161.26 251.062C160.607 251.312 158.237 252.105 158.358 252.863C159.18 253.047 160.077 252.707 160.921 252.743C160.372 256.368 159.571 260.077 159.645 263.752C159.635 264.962 161.487 265.191 161.724 263.991C163.966 267.277 170.73 268.561 170.088 273.364C169.73 274.345 169.262 275.014 168.256 275.05C167.542 275.234 166.744 276.076 167.155 276.827L167.137 276.834C167.215 277.513 167.993 277.759 168.503 277.954C169.011 278.349 169.029 278.984 168.626 279.578C166.655 281.651 161.033 279.585 158.589 278.903C153.629 277.184 148.941 274.695 144.468 271.972C142.371 270.767 140.93 268.748 140.248 266.453C137.173 255.53 133.184 243.94 134.993 232.514C135.776 231.402 137.473 231.604 138.578 231.015C136.751 237.74 139.778 244.723 141.01 251.354C143.552 263.293 145.555 272.816 158.736 276.8C160.514 277.171 164.348 278.517 165.667 277.026C166.087 276.625 166.046 275.954 165.667 275.546C165 274.655 163.897 274.762 162.901 274.661C160.321 274.339 157.797 273.558 155.496 272.349C150.381 269.827 146.826 264.964 145.922 259.358C144.387 253.046 143.009 246.683 141.216 240.437C139.989 236.189 137.985 232.491 142.423 229.362C145.426 229.45 148.432 229.533 151.437 229.543C150.697 230.783 149.878 232.347 150.295 233.818C148.463 237.963 150.829 243.488 155.393 244.545C157.919 245.088 160.541 244.441 162.872 243.376C162.835 244.252 162.724 245.099 162.513 245.995ZM115.709 225.691C115.696 225.521 115.683 225.35 115.669 225.179C115.901 225.434 116.167 225.662 116.452 225.868C116.206 225.806 115.96 225.742 115.709 225.691ZM116.15 253.685C116.39 254.55 116.659 255.407 116.951 256.257C112.617 255.007 106.837 253.97 103.235 257.362C102.72 255.978 102.107 254.667 101.247 253.483C105.633 252.985 110.052 253.26 114.437 252.814C114.761 253.426 115.501 253.789 116.15 253.685ZM102.742 263.666C102.758 263.622 102.775 263.577 102.79 263.534C103.037 263.503 103.283 263.474 103.528 263.441C103.265 263.513 103.004 263.588 102.742 263.666ZM118.013 259.271C118.177 259.83 118.609 260.173 119.045 260.211C119.477 260.681 119.648 261.392 120.225 261.714C122.409 268.921 125.345 275.923 126.825 283.336C116.704 286.605 107.217 286.792 97.031 283.496C97.2757 283.256 97.3909 282.934 97.3961 282.576C97.4025 282.583 97.4104 282.588 97.4182 282.595C96.0407 275.847 96.8177 273.724 100.335 267.955C105.062 267.752 109.802 267.577 114.533 267.719C115.644 267.849 117.8 266.937 116.829 265.613C115.689 264.365 113.897 264.703 112.366 264.784C108.793 264.963 105.229 265.488 101.825 266.608C102.182 265.85 102.293 264.948 102.581 264.144C105.881 263.77 109.214 263.683 112.524 263.957C113.758 264.073 115.212 264.664 116.28 263.806C118.188 260.495 104.683 262.31 103.131 262.679C103.642 261.482 104.187 260.24 103.954 258.896C107.357 256.223 114.491 257.147 118.013 259.271ZM128.026 285.682C128.298 285.873 128.646 285.863 128.941 285.733C129.622 287.378 129.149 289.06 127.263 289.447C123.825 290.25 120.242 290.401 116.727 290.607C112.985 290.753 109.231 290.645 105.504 290.291C99.5228 290.112 94.2089 288.433 94.4531 281.432C94.6925 282.367 94.8487 283.8 96.0523 283.859C105.445 288.807 117.64 289.278 127.332 284.977C127.5 285.244 127.721 285.469 128.026 285.682ZM83.1919 250.717C83.1906 250.698 83.1906 250.681 83.1879 250.661C83.2889 250.688 83.3902 250.717 83.4928 250.742C83.3922 250.733 83.2927 250.724 83.1919 250.717ZM109.838 148.259C109.856 149.706 109.657 151.173 109.123 152.527C108.062 151.615 106.916 150.814 105.662 150.179C107.118 149.693 108.499 149.008 109.838 148.259ZM79.6111 161.467C79.8073 161.121 78.9343 161.543 78.7985 161.561C79.3673 161.105 79.2514 160.136 78.5918 159.876C75.4637 154.436 79.2583 149.496 83.2691 145.881C90.1142 139.128 95.6856 131.262 102.05 124.076C110.079 125.412 117.834 128.842 123.823 134.368C117.689 140.013 111.29 145.946 103.571 149.32C102.853 148.973 101.899 149.067 101.66 149.844C100.774 150.005 99.8908 150.23 99.0071 150.374C98.9625 150.38 98.9691 150.445 99.0071 150.456C99.8757 150.754 100.771 150.953 101.699 150.894C110.627 153.997 113.967 163.581 120.319 169.841C125.505 174.367 132.943 177.708 133.692 185.409C134.941 187.899 135.842 190.497 135.511 193.285C135.598 195.463 134.836 197.623 135.459 199.735C134.149 204.73 132.648 209.926 128.897 213.692C128.791 213.666 128.681 213.673 128.579 213.722C128.849 212.053 129.138 210.387 129.423 208.721C130.504 206.517 131.195 204.146 131.648 201.74C131.832 200.527 130.047 200.284 129.972 201.519C128.754 205.848 127.278 210.978 123.045 213.495C123.815 210.587 124.745 207.711 126.027 204.986C126.518 204.079 126.981 203.157 127.435 202.231C127.925 201.229 126.463 200.349 125.92 201.348C123.943 205.108 122.078 209.366 118.311 211.615C119.5 207.694 121.067 203.852 122.551 200.028C122.716 199.635 122.373 199.17 122.003 199.065C121.552 198.935 121.201 199.224 121.037 199.611C120.441 200.99 119.989 202.585 119.027 203.779C118.64 205.102 115.941 207.147 117.313 204.113C118.647 200.211 119.553 196.048 121.468 192.408C121.994 185.806 120.995 181.676 114.614 178.619C113.689 178.158 112.541 177.566 111.432 177.368C108.33 174.29 105.018 171.429 101.456 168.834C94.2374 163.393 83.2636 158.533 74.9876 164.604C76.3159 163.295 77.8576 162.213 79.6111 161.467ZM111.09 114.472C119.665 106.127 130.836 99.4749 143.142 99.4724C143.032 99.5089 143.013 99.642 143.078 99.7281C133.741 138.929 178.57 154.169 186.714 111.156C195.265 116.72 201.749 131.202 204.708 140.772C197.042 141.365 190.144 146.193 185.678 152.234C185.293 151.581 185.21 150.806 186.249 150.996C186.486 150.769 185.4 150.899 185.309 151.084C187.376 146.683 189.502 142.128 190.708 137.326C190.744 137.205 190.573 137.137 190.507 137.241C188.695 140.121 186.789 142.938 185.021 145.846C179.039 157.523 167.099 167.784 167.607 181.73C167.604 181.732 167.603 181.733 167.601 181.734C167.833 182.138 167.74 182.699 168.093 183.052C166.254 191.173 161.668 199.472 154.219 203.654C148.592 206.241 142.468 203.243 137.611 200.312C137.431 198.597 137.251 196.883 137.07 195.169C137.955 194.948 137.842 193.334 137.868 192.625C138.054 189.637 137.279 186.705 135.687 184.144C134.952 180.344 132.892 176.966 129.913 174.499C127.924 172.804 125.713 171.396 123.688 169.749C118.309 165.392 115.427 158.918 110.673 153.99C111.246 151.922 111.367 149.852 110.754 147.726C114.152 145.539 132.671 133.489 129.234 129.272C128.736 128.535 127.657 128.665 127.373 129.515C127.014 130.669 126.482 131.736 125.602 132.583C119.376 126.95 111.091 123.214 102.59 123.458C105.312 120.355 108.125 117.326 111.09 114.472ZM143.881 100.176C149.193 102.809 155.599 100.988 161.265 101.218C169.98 101.563 178.436 105.837 183.837 112.671C181.722 121.986 176.681 132.579 166.424 134.716C156.258 136.539 147.273 127.85 144.847 118.555C143.219 112.592 143.186 106.286 143.881 100.176ZM217.034 166.716C217.814 168.817 218.552 170.932 219.269 173.055C219.991 175.218 220.841 177.365 221.432 179.568C221.187 180.622 220.6 181.464 220.013 182.349C215.625 188.932 206.701 188.317 200.214 191.513C199.193 191.996 197.959 192.597 197.065 193.446C195.862 193.893 195.52 195.319 195.711 196.478C196.766 202.344 197.626 208.148 197.881 214.097C197.964 215.738 198.016 217.453 197.502 219.02C195.629 217.518 194.544 208.853 194.493 206.294C194.47 205.65 193.659 205.609 193.433 206.15C190.678 213.67 192.112 221.931 191.77 229.774C187.868 224.112 187.857 216.971 187.645 210.357C187.599 209.299 185.977 209.287 185.986 210.357C185.752 217.317 186.76 224.886 185.999 231.662C183.09 224.515 182.273 216.492 183.027 208.836C181.637 212.874 181.687 218.412 182.149 222.945C180.784 223.096 181.697 226.98 181.284 228.092C173.591 210.465 181.533 200.133 189.988 185.251C191.755 180.937 196.618 173.203 195.225 168.809C194.729 167.264 193.847 165.88 193.018 164.498C190.664 160.602 188.229 156.756 185.97 152.806C186.37 152.49 186.762 152.164 187.148 151.831C192.318 147.229 197.034 143.641 204.319 143.122C209.984 150.166 213.932 158.272 217.034 166.716ZM185.969 231.733C185.92 231.874 185.846 231.596 185.991 231.68C185.985 231.697 185.975 231.714 185.969 231.733ZM192.751 220.166C192.786 217.28 192.749 214.363 193.147 211.504C192.991 214.391 192.882 217.28 192.751 220.166ZM190.001 174.158C183.565 176.115 176.983 177.673 170.721 180.155C171.049 169.37 179.554 161.318 184.46 152.315C186.394 156.719 189.569 160.508 191.576 164.889C193.117 167.649 194.523 170.611 192.773 173.637C191.857 173.605 190.836 173.945 190.001 174.158ZM119.12 185.936C117.201 183.547 115.194 181.245 113.084 179.046C116.236 180.495 118.5 182.524 119.192 186.035C119.169 186.003 119.146 185.97 119.12 185.936ZM154.088 229.53C153.853 229.704 153.759 229.79 153.588 229.923C153.754 229.799 153.898 229.591 154.088 229.53ZM237.951 200.897C234.944 193.256 228.584 187.617 221.706 183.419C223.433 181.411 222.713 178.836 221.885 176.606C218.436 165.541 214.55 154.355 207.642 144.908C209.093 144.044 206.071 137.39 205.636 135.788C201.932 126.798 196.378 113.844 186.572 110.396C186.059 109.501 184.484 109.454 184.294 110.719C176.92 102.11 165.152 98.3516 154.054 100.181C150.732 100.761 147.548 99.9013 144.267 99.5012C145.885 99.5677 147.495 99.7622 149.08 100.109C149.204 100.137 149.251 99.9631 149.132 99.9213C139.104 96.1653 127.878 99.1857 119.23 104.922C103.766 115.347 93.9912 131.731 80.9988 144.737C77.2977 148.17 73.7592 153.056 75.3651 158.344C75.8031 159.705 76.2047 161.861 78.007 161.861C60.3614 170.569 67.6531 193.367 71.0373 208.385C74.293 222.655 77.3571 236.971 80.6964 251.22C80.9515 252.279 82.0955 252.342 82.7457 251.802C88.1639 253.19 93.8646 253.287 99.4328 253.492C102.278 260.253 101.767 261.826 97.8637 267.842C97.9239 267.831 97.9945 267.823 98.0809 267.821C97.9892 267.826 97.8861 267.855 97.81 267.916C97.8261 267.893 97.8391 267.881 97.8637 267.842C97.5862 267.89 97.5875 268 97.6556 268.022C97.7026 267.981 97.7511 267.945 97.8033 267.913C97.8007 267.921 97.8007 267.925 97.8087 267.917C97.768 268.015 97.6988 268.036 97.6556 268.022C95.0198 271.297 93.6648 275.658 94.2346 279.84C92.3048 282.002 92.5226 285.617 93.9178 288.026C95.6482 291.382 99.4892 292.288 102.964 292.591C107.228 293.15 111.534 293.377 115.834 293.261C117.96 293.204 120.081 293.065 122.196 292.843C125.816 292.452 131.325 292.422 131.871 287.788C131.991 286.064 131.257 282.456 129.314 282.011C127.487 275.021 125.251 267.913 121.129 261.89C122.365 260.834 121.108 259.017 120.181 258.167C119.294 256.324 118.401 254.484 117.365 252.718C117.652 251.655 116.939 250.997 117.08 249.944C117.113 241.937 116.288 233.96 115.731 225.977C121.401 229.945 132.613 228.736 139.571 229.279C138.493 231.691 135.509 229.307 133.658 231.354C129.65 239.982 135.184 258.445 138.088 267.385C138.917 270.087 140.662 272.421 143.072 273.921C148.005 277.023 153.253 279.794 158.803 281.617C161.812 282.449 165.077 283.435 168.194 282.695C170.613 282.11 172.194 279.206 170.886 276.977C173.321 274.792 173.268 271.161 171.141 268.84C168.707 265.985 164.637 265.355 161.896 262.976C162.214 259.545 162.379 256.128 162.814 252.713C163.824 252.663 164.832 253.093 165.779 252.627C167.586 250.888 164.5 250.167 163.039 250.618C163.093 250.12 163.146 249.623 163.199 249.124C166.399 249.837 166.506 246.746 163.436 247.018C163.724 245.561 163.88 244.079 163.876 242.608C164.185 242.144 164.165 241.579 163.911 241.145C165.911 240.841 168.045 240.828 169.982 240.247C170.024 242.759 173.84 260.788 177.972 254.769C180.186 252.431 183.206 251.042 186.163 249.843C189.778 248.356 193.373 246.82 196.924 245.183C207.482 240.311 217.696 234.638 227.124 227.823C236.637 221.717 242.739 212.168 237.951 200.897Z" fill="black"/>
<path fill-rule="evenodd" clip-rule="evenodd" d="M188.59 83.3817C187.712 72.7046 185.038 63.2481 172.473 62.8448C166.803 62.8954 161.014 64.0968 155.8 66.3196C143.126 72.6571 139.105 95.8144 150.271 105.136C150.204 105.174 150.188 105.283 150.267 105.335C152.574 106.883 155.138 108.157 157.706 109.227C164.547 112.111 172.6 113.364 179.577 110.235C190.224 105.717 190.383 93.1449 188.59 83.3817Z" fill="white"/>
<path fill-rule="evenodd" clip-rule="evenodd" d="M209.548 78.4051C209.985 78.0121 210.311 77.4966 210.477 76.9186C210.627 76.3916 210.638 75.8161 210.478 75.2904C210.306 74.7264 209.937 74.2772 210.02 73.6902C210.029 73.6328 210.04 73.5728 210.058 73.5129C210.378 72.4078 211.165 71.6103 210.883 70.3853C210.804 70.0395 210.654 69.7282 210.446 69.4832C210.469 69.2178 210.489 68.9498 210.506 68.6819C210.968 67.6036 210.951 66.3225 210.459 65.2609C210.398 64.7173 210.308 64.1788 210.18 63.6492C210.239 63.1809 210.157 62.6654 210.006 62.2558C209.74 61.5351 209.413 60.8249 209.057 60.1264C209.099 59.9354 209.08 59.7335 208.974 59.554C208.782 59.2277 208.528 58.9409 208.269 58.6605C208.085 58.3335 207.9 58.0091 207.717 57.689C207.632 57.5418 207.538 57.3786 207.435 57.2057C207.716 56.6844 207.867 56.1762 207.569 55.5631C207.457 55.3328 207.149 55.163 206.895 55.178C206.618 55.1945 206.339 55.2068 206.058 55.2174C205.532 54.5848 204.937 54.0168 204.299 53.6899C203.653 53.1438 202.998 52.6079 202.361 52.0604C202.18 51.9048 201.999 51.7491 201.818 51.5934C201.817 51.5896 201.816 51.5845 201.814 51.5807C201.681 51.097 201.532 50.6198 201.382 50.14C201.289 49.8427 201.26 49.5314 200.97 49.3693C200.363 49.0312 199.431 48.9776 198.735 48.9202C198.666 48.8589 198.597 48.7989 198.527 48.7377C198.843 47.8981 198.787 47.0061 198.389 46.1652C198.254 45.8794 197.783 45.7505 197.524 45.9394C196.928 46.3758 196.221 46.5302 195.521 46.4664C194.492 45.6778 190.343 42.1118 189.701 41.7354C189.693 41.7219 189.687 41.7084 189.679 41.695C189.318 41.121 188.881 40.6601 188.388 40.2906C188.318 40.2175 188.248 40.1442 188.178 40.071C188.239 39.6334 188.402 39.2109 188.664 38.8575C188.692 38.8166 188.724 38.7771 188.756 38.7388C189.214 38.1952 188.655 37.496 188.015 37.7805C187.969 37.8009 187.923 37.8213 187.877 37.843C187.385 38.0618 186.841 38.2995 186.274 38.5001C186.067 38.4226 185.856 38.3524 185.663 38.2751L183.598 37.4473C183.258 37.3111 182.899 37.1956 182.57 37.0354C182.456 36.2751 181.692 35.7764 180.898 35.8024C180.944 35.6565 181.012 35.5147 181.109 35.3803C181.137 35.3408 181.167 35.3025 181.199 35.2655C181.608 34.7921 181.062 33.9142 180.479 34.3353C180.438 34.3646 180.396 34.394 180.355 34.4233C180.193 34.5367 180.027 34.6432 179.859 34.7463C179.591 34.6294 179.288 34.6027 178.972 34.7264C178.271 35.0001 177.625 35.2784 177.007 35.7074C176.982 35.7248 176.956 35.7395 176.931 35.756C176.625 35.387 176.138 35.1402 175.7 35.1429C175.691 35.1429 175.685 35.1427 175.677 35.1426C175.349 34.6451 174.749 34.3559 174.169 34.4262C174.209 33.7123 173.492 33.0752 172.84 32.9977C172.077 32.9074 171.39 33.3488 171.161 34.0904C171.098 34.2969 171.034 34.5034 170.97 34.71C170.378 34.4121 169.754 34.1838 169.101 34.0699C167.615 33.8103 166.163 34.0867 164.731 34.4981C164.588 34.5392 164.445 34.5814 164.302 34.6235C164.098 34.3876 163.906 34.146 163.723 33.9206C163.407 33.5314 162.648 33.8427 162.699 34.3429C162.735 34.6881 162.594 34.9364 162.368 35.1129C162.119 35.1491 161.879 35.1601 161.517 35.1528C161.038 35.1431 160.82 35.1282 160.319 34.9335C160.086 34.8429 159.795 34.6046 159.659 34.3908C159.138 33.5707 157.813 33.3498 157.183 34.1317C156.519 33.842 155.681 34.2416 155.312 34.8051C155.119 35.0997 154.717 35.2645 154.211 35.4061C153.831 35.5123 153.442 35.5927 153.051 35.663C152.877 35.4275 152.511 35.2697 152.242 35.4671C152.06 35.6012 151.883 35.7389 151.709 35.88C150.364 36.0648 149.026 36.0714 147.744 35.5485C146.659 35.1057 145.662 36.315 145.841 37.3302C145.527 37.4934 145.186 37.602 144.875 37.773C144.198 38.1464 143.641 38.7365 143.302 39.4299C143.242 39.5541 143.187 39.6801 143.134 39.8068C142.881 40.0124 142.631 40.2235 142.386 40.4461C141.979 40.2381 141.574 40.0301 141.167 39.8221C140.862 39.6665 140.349 39.7749 140.289 40.1782C140.191 40.8417 139.951 41.3916 139.61 41.8523C138.499 42.4342 137.431 43.0875 136.409 43.8135C135.233 44.181 133.983 44.3954 132.955 44.6366C132.603 44.7195 132.411 45.1776 132.61 45.4826C132.82 45.8054 133.029 46.1282 133.238 46.4511C132.653 47.0202 132.104 47.6148 131.586 48.2298C130.144 49.9397 128.938 51.8142 127.858 53.7997C127.43 53.9719 127.003 54.1429 126.576 54.3152C126.164 54.4811 125.978 54.9583 126.312 55.3092C126.471 55.4763 126.613 55.6524 126.734 55.8375C126.129 56.8366 125.417 57.7477 124.42 58.3448C124.117 58.526 123.889 58.8106 123.767 59.1334C123.664 59.2023 123.561 59.2763 123.46 59.3516C123.179 59.5634 123.009 60.0254 123.339 60.2997C123.57 60.4936 123.788 60.7233 123.972 60.9773C124.012 61.1215 124.053 61.2669 124.094 61.4111C123.167 62.2609 122.397 63.2486 121.819 64.3562C121.682 64.3345 121.541 64.3485 121.427 64.4327C120.393 65.1945 120.363 66.408 120.778 67.4926C120.528 69.1272 120.689 70.8026 121.173 72.3861C120.537 73.0191 120.154 73.9327 119.998 74.8131C119.723 76.3597 119.704 78.7382 119.632 80.3166C118.939 80.984 118.445 81.8478 118.17 82.7768C117.938 82.8916 117.706 83.0064 117.475 83.1213C117.269 83.2234 117.118 83.4926 117.131 83.7197C117.189 84.8184 117.644 85.6861 118.246 86.4721C118.46 87.0782 118.776 87.6371 119.191 88.173C119.477 88.5405 119.757 88.8927 120.004 89.2896C120.03 89.3291 120.045 89.3661 120.057 89.3916C119.96 89.4963 119.879 89.6698 119.809 89.7936C119.217 90.8323 119.209 92.0496 120.048 92.9543C119.732 93.212 119.722 93.7327 120.001 94.0517C121.816 96.1201 123.33 98.6351 125.849 99.7338C125.861 99.7529 125.871 99.7721 125.88 99.7912C125.369 101.016 125.3 101.653 125.717 102.919C125.72 102.93 125.724 102.94 125.727 102.952C125.95 103.615 126.36 104.678 127.098 104.885C127.331 104.95 127.56 104.979 127.786 104.978C128.372 105.541 128.957 106.105 129.542 106.669C129.593 106.948 129.625 107.23 129.635 107.515C129.652 107.991 130.101 108.376 130.584 108.236C130.755 108.186 131.696 107.274 131.869 107.279C131.956 107.366 132.04 107.452 132.125 107.54C132.436 107.866 132.867 108.379 132.903 108.72C132.972 109.361 133.394 110.096 134.076 110.226C134.332 110.486 134.741 110.563 135.055 110.225C135.075 110.204 135.096 110.182 135.118 110.163C135.151 110.159 135.183 110.155 135.216 110.151C135.367 110.6 135.518 111.05 135.67 111.497C135.968 112.38 137.107 112.948 137.916 112.433C138.046 112.511 138.174 112.593 138.302 112.676C138.497 112.8 138.694 112.927 138.896 113.045C138.907 113.078 138.919 113.112 138.929 113.143C139.06 113.54 139.602 113.753 139.936 113.525C140.04 113.558 140.146 113.585 140.253 113.607C140.818 113.718 141.386 113.687 141.931 113.499C142.321 113.367 142.693 113.113 143.113 113.078C143.139 113.076 143.166 113.078 143.193 113.077C143.535 113.777 144.318 114.38 144.934 114.584C145.742 114.853 146.568 114.757 147.304 114.428C147.502 114.824 147.752 115.198 148.049 115.545C148.214 115.736 148.512 115.695 148.683 115.545C149.006 115.259 149.327 114.972 149.648 114.685C149.88 114.595 150.114 114.488 150.358 114.389C151.123 114.078 151.961 113.949 152.668 113.499C153.003 113.285 153.319 113.012 153.579 112.697C154.069 112.415 154.519 112.063 154.924 111.661C155.126 111.662 155.337 111.615 155.542 111.511C156.398 111.078 156.848 110.195 156.888 109.291C157.581 107.664 157.991 105.929 158.103 104.153C158.139 103.569 158.146 102.981 158.101 102.398C158.07 101.987 157.967 101.713 157.81 101.342C157.758 101.22 157.711 101.109 157.674 100.987C157.683 100.594 157.688 100.201 157.693 99.8091C157.799 99.4786 157.988 99.1711 158.252 98.912C158.66 98.5114 158.847 97.6794 158.476 97.1843C158.234 96.864 157.993 96.5437 157.752 96.2235C157.819 94.8492 158.15 92.6621 157.418 92.4324C157.447 92.2282 157.51 92.0266 157.546 91.8237C157.717 90.8489 157.615 89.9773 157.095 89.125C156.986 88.9476 156.894 88.7906 156.819 88.6375C156.772 88.3568 156.724 88.0761 156.677 87.7953C156.604 87.3628 156.532 86.9264 156.471 86.4874C156.439 85.9285 156.409 85.3696 156.377 84.8095C156.348 84.294 156.315 83.7784 156.28 83.2617C156.294 83.0307 156.315 82.7997 156.344 82.5688C156.519 81.192 157.084 80.6828 158.061 79.7258C158.215 79.7016 158.367 79.6748 158.517 79.6441C159.214 79.4999 159.943 79.2766 160.661 79.357C161.44 79.4438 162.138 79.7794 162.895 79.3507C163.118 79.2231 163.608 78.8709 163.65 78.5914C163.653 78.5736 163.656 78.5583 163.662 78.5468C163.714 78.5391 163.782 78.5327 163.824 78.5314C164.425 78.511 165 78.7471 165.606 78.682C166.324 78.6055 166.966 78.2877 167.389 77.8169C167.93 77.9496 168.483 78.0096 169.044 77.9356C169.515 77.8743 169.937 77.7212 170.355 77.494C170.658 77.3307 170.562 77.2835 170.892 77.4162C171.643 77.7199 172.322 78.1206 173.168 77.9126C173.607 77.8054 173.986 77.5693 174.304 77.2516C174.38 77.1776 174.508 77.0666 174.593 76.9619C174.995 77.1648 176.006 77.6229 176.172 77.6638C176.643 77.7786 177.142 77.7607 177.6 77.6076C177.937 77.4953 178.349 77.1891 178.644 77.1266C179.027 77.0449 179.876 77.5757 180.333 77.7582C181.134 78.0785 181.982 78.1576 182.794 77.8271C183.073 77.7135 183.615 77.2605 183.824 77.2644C184.163 77.6816 185.11 79.9644 185.394 80.7977C186.544 84.1663 186.842 94.6846 186.311 97.368C186.29 97.4472 186.269 97.525 186.247 97.6041C185.594 99.9379 184.915 102.311 183.824 104.486C182.794 106.535 181.37 108.38 179.326 109.499C177.207 110.66 174.72 110.965 172.338 110.808C170.804 110.709 169.295 110.401 167.811 110.016C167.036 109.816 166.267 109.592 165.501 109.36C165.167 109.259 164.828 109.165 164.501 109.047C163.923 108.839 163.619 108.823 163.065 109.09C162.561 109.332 162.432 110.048 162.694 110.498C163.122 111.233 163.905 111.284 164.661 111.499C165.431 111.717 166.204 111.926 166.982 112.114C168.472 112.471 169.987 112.745 171.515 112.872C174.251 113.1 177.069 112.748 179.559 111.557C179.841 111.422 180.112 111.278 180.374 111.122C180.277 111.258 180.178 111.393 180.079 111.527C179.802 111.898 180.007 112.53 180.395 112.733C180.517 112.796 180.64 112.858 180.764 112.918C180.781 112.957 180.799 112.997 180.819 113.036C181.174 113.746 181.916 114.164 182.672 114.345C183.57 114.56 184.576 114.408 185.49 114.381C186.337 114.356 187.184 114.33 188.029 114.305C188.229 114.3 188.428 114.293 188.628 114.287C189.634 114.256 190.638 114.227 191.643 114.196C192.538 114.169 192.496 114.238 193.337 113.881C193.711 113.72 194.019 113.493 194.277 113.191C194.438 113.119 194.594 113.038 194.744 112.944C195.225 112.646 195.652 112.245 196.047 111.804C196.716 112.014 197.654 111.819 197.784 110.981C197.994 109.64 199.742 109.067 200.558 108.097C201.217 107.315 201.688 106.29 201.663 105.306C203.324 104.505 204.228 102.393 204.439 100.601C204.537 99.7708 204.522 98.8814 204.664 98.0367C204.727 97.969 204.783 97.8976 204.83 97.821C205.247 97.1486 205.611 96.4557 205.931 95.7462C206.366 95.4336 206.889 95.2409 207.436 95.209C208.782 95.1312 209.036 93.3205 207.752 92.8841C207.746 92.8816 207.741 92.8803 207.735 92.8777C208.083 92.01 208.053 90.9828 207.631 90.1611C207.649 90.0718 207.665 89.9837 207.682 89.8944C208.402 89.1224 208.816 88.0493 208.77 87.0042C209.098 86.7733 209.467 86.5946 209.87 86.4836C210.493 86.3126 210.497 85.5547 210.036 85.2152C209.851 85.0787 209.697 84.9192 209.569 84.7431C209.888 83.7887 209.763 82.6849 209.111 81.9014C209.525 81.3731 209.938 80.8449 210.351 80.3166C210.625 79.967 210.77 79.3736 210.351 79.0419C210.084 78.8288 209.816 78.6169 209.548 78.4051Z" fill="black"/>
<path fill-rule="evenodd" clip-rule="evenodd" d="M179.552 101.498C178.684 101.838 177.658 101.919 176.762 101.629C175.905 101.351 175.126 100.734 174.655 99.9573C174.236 99.2656 174.061 98.4449 174.309 97.6267C174.321 97.5875 174.359 97.5625 174.396 97.5527C174.599 97.7368 174.724 97.9197 174.849 98.1017C175.061 98.4085 175.272 98.7121 175.562 98.9744C175.985 99.356 176.554 99.666 177.119 99.7682C177.672 99.8685 178.238 99.7798 178.733 99.5158C179.034 99.3554 179.278 99.1409 179.519 98.9254C179.782 98.6907 180.04 98.4525 180.402 98.32C180.691 98.2138 180.996 98.3034 181.23 98.481C181.481 98.672 181.662 98.9709 181.652 99.2833C181.636 99.7675 181.424 100.171 181.115 100.504C180.698 100.955 180.109 101.28 179.552 101.498ZM178.521 89.433C179.488 90.0187 180.96 91.3845 179.92 92.8365C178.697 94.1168 176.935 92.6488 176.067 91.9849C175.262 91.4704 174.358 92.7937 175.105 93.3945C181.377 98.0259 183.923 89.5862 179.01 88.7444C178.469 88.6516 178.268 89.2518 178.521 89.433ZM168.359 81.3177C169.676 81.2549 170.836 81.8447 172.091 82.1127C173.251 82.3605 174.393 82.2117 175.521 81.8965C177.352 81.385 178.108 84.1794 176.303 84.724C174.988 85.1206 173.604 85.1482 172.255 84.9438C171.056 84.7621 170.051 84.1802 168.909 83.8414C167.928 83.5508 166.774 83.6716 165.739 83.8084L165.337 83.8623C164.739 83.9426 164.139 84.0231 163.547 84.1396C163.034 84.2408 162.521 84.426 161.997 84.4474C161.938 84.45 161.887 84.3729 161.925 84.3215C162.533 83.4881 163.706 82.8306 164.64 82.3921L164.703 82.3625C165.855 81.827 167.076 81.3787 168.359 81.3177ZM167.876 87.4625L167.876 87.4337C167.878 86.62 168.353 84.7622 169.528 84.7622C170.261 84.7622 170.707 86.0266 170.784 87.33L170.787 87.3831C170.821 88.1935 170.598 89.9647 169.528 89.9647C168.446 89.9647 167.887 88.2871 167.876 87.4625ZM185.169 87.4625L185.169 87.4337C185.168 86.62 184.692 84.7622 183.518 84.7622C182.802 84.7622 182.361 85.9642 182.268 87.2323L182.262 87.33C182.215 88.113 182.424 89.9647 183.518 89.9647C184.599 89.9647 185.158 88.2871 185.169 87.4625ZM185.151 80.3267L185.235 80.3285C186.608 80.376 188.02 81.1869 188.386 82.5491C188.405 82.6197 188.318 82.6673 188.266 82.6189C187.137 81.565 185.619 82.572 184.489 83.0998L184.074 83.291C182.617 83.9671 180.96 84.7618 179.342 84.258C178.574 84.0188 178.086 83.2315 178.305 82.4363C178.5 81.7287 179.357 81.1341 180.098 81.3895L180.132 81.4017C180.735 81.6316 181.476 81.3986 182.098 81.169L182.609 80.9775C183.431 80.6664 184.257 80.3183 185.151 80.3267Z" fill="black"/>
</svg>
