<svg width="192" height="192" viewBox="0 0 192 192" fill="none" xmlns="http://www.w3.org/2000/svg">
<path d="M174.516 109.035C174.612 108.797 174.755 108.558 174.898 108.32C174.707 108.558 174.612 108.797 174.516 109.035Z" fill="#FFD465"/>
<path d="M175.372 107.701C175.563 107.51 175.754 107.319 175.992 107.176C175.801 107.367 175.563 107.51 175.372 107.701Z" fill="#FFD465"/>
<path d="M190.997 144.098C190.95 141.859 189.092 140.048 186.853 140.048H178.373C176.086 140.048 174.228 141.906 174.228 144.193V152.769C174.228 155.055 176.086 156.913 178.373 156.913H186.853C189.139 156.913 190.997 155.055 190.997 152.769V144.193C190.997 144.193 190.997 144.145 190.997 144.098Z" fill="#FFD465"/>
<path d="M186.807 106.509H178.327C177.469 106.509 176.659 106.795 175.993 107.224C175.754 107.367 175.564 107.557 175.373 107.748C175.183 107.939 174.992 108.129 174.849 108.367C174.706 108.605 174.563 108.844 174.468 109.082C174.277 109.558 174.135 110.13 174.135 110.702V119.277C174.135 119.325 174.135 119.372 174.135 119.42C174.182 121.659 176.04 123.469 178.279 123.469H186.759C189.046 123.469 190.904 121.611 190.904 119.325V110.749C190.999 108.367 189.141 106.509 186.807 106.509Z" fill="#FFD465"/>
<path d="M29.2591 85.0231C30.069 86.1665 31.3554 86.8334 32.7369 86.8334H40.9788C42.7892 86.8334 44.3613 85.7377 44.9807 84.0226L52.6032 63.3464L59.4159 81.6406C60.0352 83.308 61.655 84.4037 63.4178 84.4037C63.4178 84.4037 63.4178 84.4037 63.4654 84.4037C65.2757 84.4037 66.8479 83.2604 67.4672 81.5929L71.612 70.1114C71.9455 69.1586 71.9455 68.1105 71.5644 67.1101C71.5644 67.0624 71.5167 67.0148 71.4691 66.9195L60.9881 37.8108C60.3687 36.0957 58.7489 35 56.9386 35H56.8909H48.1726C46.3623 35 44.7425 36.1434 44.1231 37.8108L28.5922 81.1165C28.2587 82.4505 28.4969 83.8797 29.2591 85.0231Z" fill="#FFD465"/>
<path d="M72.1846 85.0231C72.9945 86.1665 74.2808 86.8334 75.6624 86.8334H83.9995C85.8099 86.8334 87.382 85.7377 88.0014 84.0226L95.6239 63.3464L102.484 81.6882C103.104 83.3556 104.723 84.4514 106.486 84.4514C106.486 84.4514 106.486 84.4514 106.534 84.4514C108.344 84.4514 109.916 83.308 110.536 81.6406L114.68 70.1591C115.014 69.1586 115.014 68.1105 114.633 67.1101C114.585 67.0148 114.585 66.9671 114.537 66.9195L104.056 37.8108C103.437 36.0957 101.817 35 100.007 35H99.9593H91.241C89.4306 35 87.7632 36.1434 87.1438 37.8585L76.5675 67.3959L71.6605 81.1165C71.1841 82.4505 71.3747 83.8797 72.1846 85.0231Z" fill="#FFD465"/>
<path d="M115.201 85.0232C116.011 86.1666 117.298 86.8336 118.679 86.8336H126.921C128.731 86.8336 130.303 85.7379 130.923 84.0228L138.545 63.3466L145.406 81.6884C146.025 83.3558 147.645 84.4515 149.408 84.4515C149.408 84.4515 149.408 84.4515 149.455 84.4515C151.266 84.4515 152.838 83.3082 153.457 81.6407L157.602 70.1592C157.935 69.2064 157.935 68.1107 157.554 67.1579C157.507 67.0626 157.507 67.0149 157.459 66.9673L146.978 37.8586C146.359 36.1436 144.739 35.0478 142.928 35.0478H142.881H134.162C132.781 35.0478 131.399 35.7148 130.637 36.9058C130.304 37.3822 130.065 37.9063 129.97 38.4303L129.922 38.5256C129.875 38.6209 129.875 38.7162 129.827 38.8115L114.63 81.212C114.201 82.4506 114.391 83.8799 115.201 85.0232Z" fill="#FFD465"/>
<path d="M20.5877 84.4932C20.5877 84.4932 20.6354 84.4932 20.5877 84.4932C22.3981 84.4932 24.0179 83.3499 24.6372 81.6824L28.782 70.2009C29.1155 69.2005 29.1155 68.1524 28.7343 67.1519C28.6867 67.0566 28.6867 67.009 28.639 66.9613L18.158 37.8527C17.5387 36.1376 15.9189 35.0419 14.1085 35.0419H5.29495C3.91336 35.0419 2.57941 35.7088 1.76952 36.8999C0.959619 38.0433 0.769055 39.5201 1.29311 40.8541L16.5859 81.8253C17.2052 83.3975 18.825 84.4932 20.5877 84.4932Z" fill="#FFD465"/>
<path d="M190.189 39.2877C190.189 36.9056 188.283 35 185.901 35H177.183C175.373 35 173.753 36.1434 173.133 37.8108L165.082 60.1545L157.555 81.1165C157.078 82.4505 157.269 83.8797 158.079 85.0231C158.889 86.1665 160.175 86.8334 161.557 86.8334H169.846C171.657 86.8334 173.229 85.7377 173.848 84.0226L189.808 40.9075C190.094 40.4311 190.189 39.8594 190.189 39.2877Z" fill="#FFD465"/>
<path d="M155.603 105.794H133.783H122.588C122.969 105.794 123.35 105.794 123.731 105.842H155.126C157.509 105.842 159.414 107.748 159.414 110.13V153.483C159.414 155.865 157.509 157.771 155.126 157.771H131.02C130.258 157.866 129.496 157.914 128.686 157.914H138.262H145.408H155.555C157.937 157.914 159.891 155.96 159.891 153.578V110.13C159.938 107.748 157.985 105.794 155.603 105.794Z" fill="#FFD465"/>
<path d="M123.778 105.842C123.397 105.794 123.016 105.794 122.635 105.794H112.154H101.578C102.102 105.794 102.626 105.794 103.15 105.842H123.778Z" fill="#FFD465"/>
<path d="M104.1 157.819C103.29 157.914 102.433 157.962 101.623 157.962H119.298H128.731C129.493 157.962 130.255 157.914 131.065 157.819H104.1Z" fill="#FFD465"/>
<path d="M71.8503 157.819C70.9452 157.914 70.04 157.962 69.0872 157.962H89.7634H98.5769H101.578C102.436 157.962 103.246 157.914 104.056 157.819H71.8503Z" fill="#FFD465"/>
<path d="M103.149 105.842C102.625 105.794 102.101 105.794 101.577 105.794H93.3823H77.9467H68.085C68.9901 105.794 69.8953 105.794 70.7529 105.842H103.149Z" fill="#FFD465"/>
<path d="M70.7522 105.842C69.847 105.794 68.9419 105.794 68.0843 105.794H63.8919H42.5011H32.9729C33.8304 105.794 34.7356 105.794 35.5932 105.842H70.7522Z" fill="#FFD465"/>
<path d="M64.6071 157.819C63.8448 157.914 63.0826 157.962 62.3203 157.962H69.0853C69.9905 157.962 70.9433 157.914 71.8485 157.819H64.6071Z" fill="#FFD465"/>
<path d="M35.5942 105.842C34.7367 105.794 33.8315 105.794 32.974 105.794H25.542C25.9708 105.794 26.3519 105.794 26.7807 105.842H35.5942Z" fill="#FFD465"/>
<path d="M10.5369 157.819C9.72704 157.914 8.8695 157.962 8.01196 157.962H21.7802H30.1174H42.7423H62.3704C63.1326 157.962 63.8949 157.914 64.6571 157.819H10.5369Z" fill="#FFD465"/>
<path d="M8.05945 157.819C5.6774 157.819 3.77176 155.913 3.77176 153.531V110.178C3.77176 107.796 5.6774 105.89 8.05945 105.89H26.7824C26.3536 105.842 25.9725 105.842 25.5437 105.842H20.589H8.01181C7.39248 105.842 6.86843 105.985 6.34438 106.176C5.29627 106.605 4.48638 107.462 4.05761 108.463C3.8194 108.987 3.72412 109.558 3.72412 110.13V153.626C3.72412 154.246 3.86704 154.77 4.05761 155.294C4.72458 156.866 6.24909 157.914 8.05945 157.914C8.91699 157.914 9.72689 157.866 10.5844 157.771H8.05945V157.819Z" fill="#FFD465"/>
<path d="M155.173 105.842H123.777H103.149H70.7051H35.5461H26.7325H8.05722C5.67517 105.842 3.76953 107.748 3.76953 110.13V153.483C3.76953 155.865 5.67517 157.771 8.05722 157.771H10.5346H64.6071H71.8485H104.102H131.066H155.173C157.555 157.771 159.46 155.865 159.46 153.483V110.13C159.46 107.796 157.555 105.842 155.173 105.842Z" fill="#FFD465"/>
</svg>
