<svg width="96" height="96" viewBox="0 0 96 96" fill="none" xmlns="http://www.w3.org/2000/svg">
<path d="M86.7585 54.5461C86.8056 54.4285 86.8761 54.3109 86.9467 54.1933C86.8526 54.3109 86.8056 54.4285 86.7585 54.5461Z" fill="#FFD465"/>
<path d="M87.1812 53.8875C87.2752 53.7935 87.3693 53.6994 87.4869 53.6288C87.3928 53.7229 87.2752 53.7935 87.1812 53.8875Z" fill="#FFD465"/>
<path d="M94.8943 71.8548C94.8708 70.7495 93.9536 69.8558 92.8483 69.8558H88.6622C87.5334 69.8558 86.6162 70.773 86.6162 71.9019V76.135C86.6162 77.2638 87.5334 78.181 88.6622 78.181H92.8483C93.9772 78.181 94.8943 77.2638 94.8943 76.135V71.9019C94.8943 71.9019 94.8943 71.8783 94.8943 71.8548Z" fill="#FFD465"/>
<path d="M92.8259 53.2997H88.6398C88.2165 53.2997 87.8167 53.4408 87.4875 53.6524C87.3699 53.723 87.2758 53.817 87.1818 53.9111C87.0877 54.0052 86.9936 54.0992 86.9231 54.2168C86.8525 54.3344 86.782 54.452 86.7349 54.5696C86.6409 54.8048 86.5703 55.087 86.5703 55.3692V59.6023C86.5703 59.6258 86.5703 59.6493 86.5703 59.6729C86.5938 60.7782 87.511 61.6718 88.6163 61.6718H92.8024C93.9313 61.6718 94.8484 60.7547 94.8484 59.6258V55.3927C94.8955 54.2168 93.9783 53.2997 92.8259 53.2997Z" fill="#FFD465"/>
<path d="M15.0544 42.6933C15.4542 43.2577 16.0892 43.5869 16.7712 43.5869H20.8397C21.7334 43.5869 22.5095 43.046 22.8152 42.1994L26.578 31.9928L29.941 41.0235C30.2467 41.8466 31.0463 42.3875 31.9164 42.3875C31.9164 42.3875 31.9164 42.3875 31.9399 42.3875C32.8336 42.3875 33.6097 41.8231 33.9154 41L35.9614 35.3323C36.126 34.862 36.126 34.3446 35.9379 33.8507C35.9379 33.8272 35.9144 33.8037 35.8909 33.7567L30.717 19.3875C30.4113 18.5409 29.6117 18 28.7181 18H28.6945H24.3909C23.4972 18 22.6976 18.5644 22.3919 19.3875L14.7252 40.7648C14.5606 41.4233 14.6782 42.1288 15.0544 42.6933Z" fill="#FFD465"/>
<path d="M36.2439 42.6933C36.6437 43.2577 37.2787 43.5869 37.9607 43.5869H42.0762C42.9699 43.5869 43.746 43.046 44.0517 42.1994L47.8145 31.9928L51.201 41.047C51.5067 41.8702 52.3063 42.4111 53.1764 42.4111C53.1764 42.4111 53.1764 42.4111 53.2 42.4111C54.0936 42.4111 54.8697 41.8466 55.1754 41.0235L57.2214 35.3558C57.3861 34.862 57.3861 34.3446 57.1979 33.8507C57.1744 33.8037 57.1744 33.7802 57.1509 33.7567L51.9771 19.3875C51.6713 18.5409 50.8717 18 49.9781 18H49.9546H45.6509C44.7572 18 43.9341 18.5644 43.6284 19.411L38.4075 33.9918L35.9852 40.7648C35.7501 41.4233 35.8441 42.1288 36.2439 42.6933Z" fill="#FFD465"/>
<path d="M57.4785 42.6933C57.8783 43.2577 58.5133 43.587 59.1953 43.587H63.2638C64.1575 43.587 64.9335 43.0461 65.2393 42.1995L69.0021 31.9929L72.3886 41.0471C72.6943 41.8702 73.4939 42.4111 74.364 42.4111C74.364 42.4111 74.364 42.4111 74.3875 42.4111C75.2812 42.4111 76.0573 41.8467 76.363 41.0236L78.409 35.3559C78.5736 34.8856 78.5736 34.3447 78.3855 33.8743C78.362 33.8273 78.362 33.8038 78.3385 33.7802L73.1646 19.4111C72.8589 18.5645 72.0593 18.0236 71.1657 18.0236H71.1421H66.8385C66.1565 18.0236 65.4744 18.3528 65.0982 18.9408C64.9335 19.1759 64.816 19.4346 64.7689 19.6933L64.7454 19.7404C64.7219 19.7874 64.7219 19.8344 64.6984 19.8815L57.1963 40.8119C56.9847 41.4234 57.0787 42.1289 57.4785 42.6933Z" fill="#FFD465"/>
<path d="M10.7737 42.4317C10.7737 42.4317 10.7972 42.4317 10.7737 42.4317C11.6674 42.4317 12.467 41.8672 12.7727 41.0441L14.8187 35.3764C14.9833 34.8826 14.9833 34.3652 14.7952 33.8713C14.7717 33.8243 14.7717 33.8008 14.7482 33.7773L9.57434 19.4081C9.26861 18.5615 8.46902 18.0206 7.57536 18.0206H3.22464C2.54264 18.0206 1.88415 18.3498 1.48435 18.9378C1.08456 19.5022 0.990489 20.2312 1.24918 20.8897L8.79826 41.1147C9.10399 41.8908 9.90358 42.4317 10.7737 42.4317Z" fill="#FFD465"/>
<path d="M94.4953 20.1166C94.4953 18.9407 93.5546 18 92.3787 18H88.075C87.1814 18 86.3818 18.5644 86.0761 19.3875L82.1016 30.4172L78.3859 40.7648C78.1507 41.4233 78.2448 42.1288 78.6446 42.6933C79.0444 43.2577 79.6793 43.5869 80.3613 43.5869H84.4534C85.347 43.5869 86.1231 43.046 86.4288 42.1994L94.3071 20.9162C94.4482 20.681 94.4953 20.3988 94.4953 20.1166Z" fill="#FFD465"/>
<path d="M77.4221 52.9468H66.6511H61.1245C61.3127 52.9468 61.5008 52.9468 61.6889 52.9703H77.1869C78.3628 52.9703 79.3035 53.911 79.3035 55.0869V76.4877C79.3035 77.6636 78.3628 78.6043 77.1869 78.6043H65.2871C64.9108 78.6513 64.5345 78.6748 64.1347 78.6748H68.8617H72.3893H77.3986C78.5744 78.6748 79.5386 77.7106 79.5386 76.5347V55.0869C79.5622 53.911 78.5979 52.9468 77.4221 52.9468Z" fill="#FFD465"/>
<path d="M61.7125 52.9703C61.5244 52.9468 61.3362 52.9468 61.1481 52.9468H55.9743H50.7534C51.0121 52.9468 51.2708 52.9468 51.5295 52.9703H61.7125Z" fill="#FFD465"/>
<path d="M51.9985 78.6279C51.5987 78.6749 51.1754 78.6985 50.7756 78.6985H59.5006H64.157C64.5333 78.6985 64.9096 78.6749 65.3094 78.6279H51.9985Z" fill="#FFD465"/>
<path d="M36.0789 78.6279C35.632 78.6749 35.1852 78.6985 34.7148 78.6985H44.9214H49.2721H50.7537C51.177 78.6985 51.5768 78.6749 51.9766 78.6279H36.0789Z" fill="#FFD465"/>
<path d="M51.529 52.9703C51.2703 52.9468 51.0116 52.9468 50.7529 52.9468H46.708H39.0883H34.2202C34.667 52.9468 35.1139 52.9468 35.5372 52.9703H51.529Z" fill="#FFD465"/>
<path d="M35.5367 52.9703C35.0899 52.9468 34.6431 52.9468 34.2198 52.9468H32.1502H21.5909H16.8875C17.3108 52.9468 17.7576 52.9468 18.1809 52.9703H35.5367Z" fill="#FFD465"/>
<path d="M32.5033 78.6279C32.1271 78.6749 31.7508 78.6985 31.3745 78.6985H34.714C35.1608 78.6985 35.6312 78.6749 36.078 78.6279H32.5033Z" fill="#FFD465"/>
<path d="M18.1817 52.9703C17.7583 52.9468 17.3115 52.9468 16.8882 52.9468H13.2195C13.4311 52.9468 13.6193 52.9468 13.8309 52.9703H18.1817Z" fill="#FFD465"/>
<path d="M5.81234 78.6279C5.41254 78.6749 4.98923 78.6985 4.56592 78.6985H11.3624H15.478H21.7101H31.3993C31.7755 78.6985 32.1518 78.6749 32.5281 78.6279H5.81234Z" fill="#FFD465"/>
<path d="M4.5893 78.6279C3.41343 78.6279 2.47274 77.6872 2.47274 76.5113V55.1105C2.47274 53.9346 3.41343 52.9939 4.5893 52.9939H13.8316C13.62 52.9704 13.4318 52.9704 13.2202 52.9704H10.7744H4.56578C4.26006 52.9704 4.00137 53.0409 3.74268 53.135C3.22529 53.3467 2.8255 53.77 2.61384 54.2639C2.49625 54.5225 2.44922 54.8048 2.44922 55.087V76.5583C2.44922 76.8641 2.51977 77.1228 2.61384 77.3814C2.94308 78.1575 3.69564 78.6749 4.5893 78.6749C5.01261 78.6749 5.41241 78.6514 5.83572 78.6044H4.5893V78.6279Z" fill="#FFD465"/>
<path d="M77.2099 52.9704H61.712H51.529H35.5136H18.1578H13.8071H4.58824C3.41238 52.9704 2.47168 53.9111 2.47168 55.087V76.4878C2.47168 77.6637 3.41238 78.6044 4.58824 78.6044H5.81115H32.5034H36.078H51.9993H65.3101H77.2099C78.3858 78.6044 79.3265 77.6637 79.3265 76.4878V55.087C79.3265 53.9346 78.3858 52.9704 77.2099 52.9704Z" fill="#FFD465"/>
</svg>
