<svg width="72" height="72" viewBox="0 0 72 72" fill="none" xmlns="http://www.w3.org/2000/svg">
<path d="M64.927 40.2758C64.9621 40.188 65.0148 40.1002 65.0674 40.0125C64.9972 40.1002 64.9621 40.188 64.927 40.2758Z" fill="#FFD465"/>
<path d="M65.2424 39.7843C65.3126 39.7141 65.3828 39.6439 65.4706 39.5912C65.4004 39.6614 65.3126 39.7141 65.2424 39.7843Z" fill="#FFD465"/>
<path d="M70.9991 53.194C70.9815 52.369 70.297 51.7021 69.4721 51.7021H66.3478C65.5053 51.7021 64.8208 52.3866 64.8208 53.2291V56.3884C64.8208 57.2309 65.5053 57.9154 66.3478 57.9154H69.4721C70.3146 57.9154 70.9991 57.2309 70.9991 56.3884V53.2291C70.9991 53.2291 70.9991 53.2115 70.9991 53.194Z" fill="#FFD465"/>
<path d="M69.4554 39.3455H66.3312C66.0153 39.3455 65.7169 39.4508 65.4711 39.6088C65.3834 39.6615 65.3132 39.7317 65.243 39.8019C65.1728 39.8721 65.1026 39.9423 65.0499 40.03C64.9972 40.1178 64.9446 40.2056 64.9095 40.2933C64.8393 40.4688 64.7866 40.6795 64.7866 40.8901V44.0494C64.7866 44.067 64.7866 44.0845 64.7866 44.1021C64.8042 44.927 65.4887 45.594 66.3136 45.594H69.4379C70.2804 45.594 70.9649 44.9095 70.9649 44.067V40.9076C71 40.03 70.3155 39.3455 69.4554 39.3455Z" fill="#FFD465"/>
<path d="M11.4115 31.4296C11.7099 31.8508 12.1838 32.0965 12.6928 32.0965H15.7293C16.3963 32.0965 16.9755 31.6928 17.2036 31.061L20.012 23.4434L22.5219 30.1834C22.7501 30.7977 23.3468 31.2014 23.9962 31.2014C23.9962 31.2014 23.9962 31.2014 24.0138 31.2014C24.6808 31.2014 25.26 30.7801 25.4882 30.1658L27.0152 25.9358C27.138 25.5847 27.138 25.1986 26.9976 24.83C26.9976 24.8125 26.9801 24.7949 26.9625 24.7598L23.1011 14.0356C22.8729 13.4037 22.2762 13 21.6092 13H21.5916H18.3796C17.7126 13 17.1159 13.4212 16.8877 14.0356L11.1658 29.9903C11.0429 30.4817 11.1307 31.0083 11.4115 31.4296Z" fill="#FFD465"/>
<path d="M27.2259 31.4296C27.5243 31.8508 27.9982 32.0965 28.5072 32.0965H31.5788C32.2458 32.0965 32.825 31.6928 33.0532 31.061L35.8615 23.4434L38.3889 30.2009C38.6171 30.8152 39.2139 31.2189 39.8633 31.2189C39.8633 31.2189 39.8633 31.2189 39.8809 31.2189C40.5478 31.2189 41.127 30.7977 41.3552 30.1834L42.8822 25.9533C43.0051 25.5848 43.0051 25.1986 42.8647 24.83C42.8471 24.7949 42.8471 24.7774 42.8296 24.7598L38.9682 14.0356C38.74 13.4037 38.1432 13 37.4762 13H37.4587H34.2467C33.5797 13 32.9654 13.4212 32.7372 14.0531L28.8407 24.9353L27.0328 29.9903C26.8573 30.4817 26.9275 31.0083 27.2259 31.4296Z" fill="#FFD465"/>
<path d="M43.0741 31.4296C43.3725 31.8509 43.8464 32.0966 44.3554 32.0966H47.3919C48.0589 32.0966 48.6381 31.6929 48.8663 31.061L51.6746 23.4435L54.2021 30.201C54.4303 30.8153 55.027 31.219 55.6764 31.219C55.6764 31.219 55.6764 31.219 55.694 31.219C56.361 31.219 56.9402 30.7977 57.1684 30.1834L58.6954 25.9534C58.8182 25.6024 58.8182 25.1987 58.6778 24.8476C58.6603 24.8125 58.6603 24.795 58.6427 24.7774L54.7813 14.0532C54.5531 13.4213 53.9563 13.0176 53.2894 13.0176H53.2718H50.0598C49.5508 13.0176 49.0418 13.2633 48.761 13.7021C48.6381 13.8777 48.5503 14.0707 48.5152 14.2638L48.4977 14.2989C48.4801 14.334 48.4801 14.3691 48.4626 14.4042L42.8635 30.0254C42.7055 30.4818 42.7758 31.0084 43.0741 31.4296Z" fill="#FFD465"/>
<path d="M8.21653 31.2343C8.21653 31.2343 8.23408 31.2343 8.21653 31.2343C8.8835 31.2343 9.48027 30.8131 9.70844 30.1987L11.2355 25.9687C11.3583 25.6001 11.3583 25.214 11.2179 24.8454C11.2004 24.8103 11.2004 24.7927 11.1828 24.7752L7.32138 14.0509C7.0932 13.4191 6.49644 13.0154 5.82946 13.0154H2.58235C2.07334 13.0154 1.58189 13.2611 1.28351 13.6999C0.985123 14.1212 0.914915 14.6653 1.10799 15.1567L6.74216 30.2514C6.97034 30.8306 7.5671 31.2343 8.21653 31.2343Z" fill="#FFD465"/>
<path d="M70.7012 14.5797C70.7012 13.7021 69.9991 13 69.1215 13H65.9095C65.2425 13 64.6458 13.4212 64.4176 14.0356L61.4513 22.2674L58.6781 29.9903C58.5026 30.4817 58.5728 31.0083 58.8712 31.4296C59.1695 31.8508 59.6435 32.0965 60.1525 32.0965H63.2065C63.8735 32.0965 64.4527 31.6928 64.6809 31.061L70.5608 15.1764C70.6661 15.0009 70.7012 14.7903 70.7012 14.5797Z" fill="#FFD465"/>
<path d="M57.9589 39.0822H49.9201H45.7954C45.9358 39.0822 46.0762 39.0822 46.2167 39.0997H57.7834C58.661 39.0997 59.3631 39.8018 59.3631 40.6794V56.6517C59.3631 57.5293 58.661 58.2314 57.7834 58.2314H48.9021C48.6213 58.2665 48.3404 58.284 48.0421 58.284H51.57H54.2028H57.9414C58.819 58.284 59.5386 57.5644 59.5386 56.6868V40.6794C59.5561 39.8018 58.8365 39.0822 57.9589 39.0822Z" fill="#FFD465"/>
<path d="M46.2341 39.0997C46.0937 39.0822 45.9533 39.0822 45.8129 39.0822H41.9515H38.0549C38.248 39.0822 38.4411 39.0822 38.6341 39.0997H46.2341Z" fill="#FFD465"/>
<path d="M38.9842 58.249C38.6859 58.2841 38.3699 58.3017 38.0715 58.3017H44.5833H48.0586C48.3394 58.3017 48.6203 58.2841 48.9186 58.249H38.9842Z" fill="#FFD465"/>
<path d="M27.1027 58.249C26.7692 58.2841 26.4358 58.3017 26.0847 58.3017H33.7023H36.9494H38.0552C38.3711 58.3017 38.6695 58.2841 38.9678 58.249H27.1027Z" fill="#FFD465"/>
<path d="M38.6338 39.0997C38.4407 39.0822 38.2477 39.0822 38.0546 39.0822H35.0357H29.3488H25.7156C26.0491 39.0822 26.3826 39.0822 26.6985 39.0997H38.6338Z" fill="#FFD465"/>
<path d="M26.6982 39.0997C26.3647 39.0822 26.0313 39.0822 25.7153 39.0822H24.1708H16.2899H12.7795C13.0955 39.0822 13.429 39.0822 13.7449 39.0997H26.6982Z" fill="#FFD465"/>
<path d="M24.4343 58.249C24.1535 58.2841 23.8726 58.3017 23.5918 58.3017H26.0842C26.4177 58.3017 26.7687 58.2841 27.1022 58.249H24.4343Z" fill="#FFD465"/>
<path d="M13.7455 39.0997C13.4295 39.0822 13.096 39.0822 12.7801 39.0822H10.042C10.2 39.0822 10.3404 39.0822 10.4983 39.0997H13.7455Z" fill="#FFD465"/>
<path d="M4.51375 58.249C4.21537 58.2841 3.89943 58.3017 3.5835 58.3017H8.65601H11.7276H16.3789H23.6103C23.8911 58.3017 24.1719 58.2841 24.4528 58.249H4.51375Z" fill="#FFD465"/>
<path d="M3.60089 58.249C2.72329 58.249 2.02121 57.5469 2.02121 56.6693V40.697C2.02121 39.8194 2.72329 39.1173 3.60089 39.1173H10.4988C10.3408 39.0998 10.2004 39.0998 10.0425 39.0998H8.21705H3.58334C3.35516 39.0998 3.16209 39.1524 2.96902 39.2227C2.58288 39.3806 2.28449 39.6966 2.12653 40.0651C2.03877 40.2582 2.00366 40.4688 2.00366 40.6795V56.7044C2.00366 56.9326 2.05632 57.1256 2.12653 57.3187C2.37225 57.8979 2.93392 58.2841 3.60089 58.2841C3.91682 58.2841 4.21521 58.2665 4.53114 58.2314H3.60089V58.249Z" fill="#FFD465"/>
<path d="M57.8006 39.0998H46.2339H38.6339H26.681H13.7277H10.4805H3.60018C2.72259 39.0998 2.02051 39.8019 2.02051 40.6795V56.6517C2.02051 57.5293 2.72259 58.2314 3.60018 58.2314H4.51288H24.4343H27.1022H38.9849H48.9193H57.8006C58.6782 58.2314 59.3803 57.5293 59.3803 56.6517V40.6795C59.3803 39.8194 58.6782 39.0998 57.8006 39.0998Z" fill="#FFD465"/>
</svg>
