<svg width="48" height="48" viewBox="0 0 48 48" fill="none" xmlns="http://www.w3.org/2000/svg">
<path d="M43.009 26.9241C43.0321 26.8664 43.0667 26.8087 43.1013 26.7511C43.0552 26.8087 43.0321 26.8664 43.009 26.9241Z" fill="#FFD465"/>
<path d="M43.2166 26.6011C43.2627 26.555 43.3088 26.5088 43.3665 26.4742C43.3204 26.5203 43.2627 26.555 43.2166 26.6011Z" fill="#FFD465"/>
<path d="M46.9995 35.4132C46.9879 34.8711 46.5381 34.4328 45.996 34.4328H43.9429C43.3893 34.4328 42.9395 34.8826 42.9395 35.4362V37.5124C42.9395 38.066 43.3893 38.5159 43.9429 38.5159H45.996C46.5496 38.5159 46.9995 38.066 46.9995 37.5124V35.4362C46.9995 35.4362 46.9995 35.4247 46.9995 35.4132Z" fill="#FFD465"/>
<path d="M45.9851 26.3127H43.932C43.7244 26.3127 43.5283 26.3819 43.3668 26.4858C43.3092 26.5204 43.263 26.5665 43.2169 26.6126C43.1707 26.6588 43.1246 26.7049 43.09 26.7626C43.0554 26.8202 43.0208 26.8779 42.9977 26.9356C42.9516 27.0509 42.917 27.1893 42.917 27.3277V29.4039C42.917 29.4154 42.917 29.427 42.917 29.4385C42.9285 29.9806 43.3784 30.4189 43.9205 30.4189H45.9735C46.5272 30.4189 46.977 29.9691 46.977 29.4154V27.3393C47.0001 26.7626 46.5502 26.3127 45.9851 26.3127Z" fill="#FFD465"/>
<path d="M7.84187 21.1108C8.03795 21.3877 8.34937 21.5491 8.68386 21.5491H10.6793C11.1176 21.5491 11.4982 21.2839 11.6481 20.8686L13.4936 15.8628L15.143 20.2919C15.2929 20.6956 15.6851 20.9609 16.1118 20.9609C16.1118 20.9609 16.1118 20.9609 16.1234 20.9609C16.5617 20.9609 16.9423 20.6841 17.0922 20.2804L18.0957 17.5007C18.1765 17.27 18.1765 17.0162 18.0842 16.774C18.0842 16.7625 18.0726 16.7509 18.0611 16.7279L15.5236 9.68051C15.3737 9.26529 14.9815 9 14.5432 9H14.5317H12.4209C11.9826 9 11.5905 9.27682 11.4405 9.68051L7.68039 20.165C7.59965 20.488 7.65732 20.834 7.84187 21.1108Z" fill="#FFD465"/>
<path d="M18.2341 21.1108C18.4302 21.3877 18.7416 21.5491 19.0761 21.5491H21.0946C21.5329 21.5491 21.9135 21.2839 22.0635 20.8686L23.9089 15.8628L25.5698 20.3035C25.7198 20.7072 26.1119 20.9724 26.5387 20.9724C26.5387 20.9724 26.5387 20.9724 26.5502 20.9724C26.9885 20.9724 27.3692 20.6956 27.5191 20.2919L28.5226 17.5122C28.6033 17.27 28.6033 17.0162 28.511 16.774C28.4995 16.7509 28.4995 16.7394 28.488 16.7279L25.9505 9.68051C25.8005 9.26529 25.4084 9 24.9701 9H24.9585H22.8478C22.4095 9 22.0058 9.27682 21.8558 9.69205L19.2953 16.8432L18.1072 20.165C17.9919 20.488 18.038 20.834 18.2341 21.1108Z" fill="#FFD465"/>
<path d="M28.6489 21.1109C28.8449 21.3877 29.1564 21.5492 29.4908 21.5492H31.4862C31.9245 21.5492 32.3052 21.2839 32.4551 20.8687L34.3006 15.8628L35.9615 20.3035C36.1114 20.7072 36.5036 20.9725 36.9304 20.9725C36.9304 20.9725 36.9304 20.9725 36.9419 20.9725C37.3802 20.9725 37.7608 20.6956 37.9108 20.292L38.9142 17.5122C38.995 17.2815 38.995 17.0163 38.9027 16.7856C38.8912 16.7625 38.8912 16.751 38.8796 16.7394L36.3421 9.69208C36.1922 9.27685 35.8 9.01157 35.3617 9.01157H35.3502H33.2394C32.9049 9.01157 32.5705 9.17304 32.3859 9.4614C32.3052 9.57674 32.2475 9.70361 32.2244 9.83049L32.2129 9.85356C32.2014 9.87663 32.2014 9.89969 32.1898 9.92276L28.5104 20.1881C28.4066 20.488 28.4528 20.8341 28.6489 21.1109Z" fill="#FFD465"/>
<path d="M5.74229 20.9833C5.74229 20.9833 5.75382 20.9833 5.74229 20.9833C6.18058 20.9833 6.57275 20.7064 6.72269 20.3028L7.72616 17.523C7.8069 17.2808 7.8069 17.0271 7.71463 16.7848C7.70309 16.7618 7.70309 16.7502 7.69156 16.7387L5.15405 9.69135C5.0041 9.27612 4.61194 9.01083 4.17365 9.01083H2.03983C1.70534 9.01083 1.38238 9.17231 1.1863 9.46067C0.990224 9.73748 0.944087 10.095 1.07096 10.418L4.77342 20.3374C4.92336 20.718 5.31552 20.9833 5.74229 20.9833Z" fill="#FFD465"/>
<path d="M46.8035 10.0381C46.8035 9.46137 46.3422 9 45.7655 9H43.6547C43.2164 9 42.8243 9.27682 42.6743 9.68051L40.7251 15.09L38.9027 20.165C38.7873 20.488 38.8335 20.834 39.0295 21.1108C39.2256 21.3877 39.537 21.5491 39.8715 21.5491H41.8785C42.3168 21.5491 42.6974 21.2839 42.8473 20.8686L46.7113 10.4302C46.7805 10.3149 46.8035 10.1765 46.8035 10.0381Z" fill="#FFD465"/>
<path d="M38.4302 26.1397H33.1475H30.437C30.5293 26.1397 30.6216 26.1397 30.7138 26.1512H38.3148C38.8915 26.1512 39.3529 26.6126 39.3529 27.1893V37.6854C39.3529 38.2621 38.8915 38.7235 38.3148 38.7235H32.4786C32.294 38.7465 32.1095 38.7581 31.9134 38.7581H34.2317H35.9619H38.4186C38.9953 38.7581 39.4682 38.2852 39.4682 37.7084V27.1893C39.4798 26.6126 39.0069 26.1397 38.4302 26.1397Z" fill="#FFD465"/>
<path d="M30.7252 26.1512C30.633 26.1397 30.5407 26.1397 30.4484 26.1397H27.9109H25.3503C25.4772 26.1397 25.6041 26.1397 25.731 26.1512H30.7252Z" fill="#FFD465"/>
<path d="M25.9613 38.735C25.7653 38.7581 25.5577 38.7697 25.3616 38.7697H29.6407H31.9245C32.109 38.7697 32.2936 38.7581 32.4897 38.735H25.9613Z" fill="#FFD465"/>
<path d="M18.1531 38.735C17.934 38.7581 17.7148 38.7697 17.4841 38.7697H22.4899H24.6238H25.3504C25.558 38.7697 25.7541 38.7581 25.9502 38.735H18.1531Z" fill="#FFD465"/>
<path d="M25.7308 26.1512C25.6039 26.1397 25.4771 26.1397 25.3502 26.1397H23.3663H19.6293H17.2417C17.4608 26.1397 17.68 26.1397 17.8876 26.1512H25.7308Z" fill="#FFD465"/>
<path d="M17.8875 26.1512C17.6684 26.1397 17.4492 26.1397 17.2416 26.1397H16.2266H11.0478H8.74097C8.94858 26.1397 9.16773 26.1397 9.37534 26.1512H17.8875Z" fill="#FFD465"/>
<path d="M16.3998 38.735C16.2153 38.7581 16.0307 38.7697 15.8462 38.7697H17.484C17.7032 38.7697 17.9339 38.7581 18.153 38.735H16.3998Z" fill="#FFD465"/>
<path d="M9.3756 26.1512C9.16798 26.1397 8.94883 26.1397 8.74122 26.1397H6.94189C7.0457 26.1397 7.13797 26.1397 7.24178 26.1512H9.3756Z" fill="#FFD465"/>
<path d="M3.30906 38.735C3.11298 38.7581 2.90537 38.7697 2.69775 38.7697H6.03112H8.04959H11.1061H15.8582C16.0427 38.7697 16.2273 38.7581 16.4118 38.735H3.30906Z" fill="#FFD465"/>
<path d="M2.70903 38.735C2.13232 38.735 1.67096 38.2737 1.67096 37.6969V27.2009C1.67096 26.6242 2.13232 26.1628 2.70903 26.1628H7.24195C7.13814 26.1513 7.04587 26.1513 6.94206 26.1513H5.74251H2.6975C2.54755 26.1513 2.42068 26.1859 2.2938 26.232C2.04005 26.3358 1.84397 26.5434 1.74016 26.7857C1.68249 26.9125 1.65942 27.0509 1.65942 27.1893V37.72C1.65942 37.87 1.69403 37.9968 1.74016 38.1237C1.90164 38.5043 2.27073 38.7581 2.70903 38.7581C2.91664 38.7581 3.11272 38.7466 3.32034 38.7235H2.70903V38.735Z" fill="#FFD465"/>
<path d="M38.3261 26.1513H30.7251H25.7309H17.8761H9.36392H7.23011H2.70873C2.13202 26.1513 1.67065 26.6126 1.67065 27.1893V37.6854C1.67065 38.2621 2.13202 38.7235 2.70873 38.7235H3.3085H16.3997H18.1529H25.9615H32.4899H38.3261C38.9028 38.7235 39.3642 38.2621 39.3642 37.6854V27.1893C39.3642 26.6242 38.9028 26.1513 38.3261 26.1513Z" fill="#FFD465"/>
</svg>
