<svg width="144" height="144" viewBox="0 0 144 144" fill="none" xmlns="http://www.w3.org/2000/svg">
<path d="M130.681 81.3317C130.752 81.1534 130.859 80.9751 130.966 80.7968C130.823 80.9751 130.752 81.1534 130.681 81.3317Z" fill="#FFD465"/>
<path d="M131.32 80.3345C131.463 80.1918 131.606 80.0492 131.784 79.9422C131.641 80.0849 131.463 80.1918 131.32 80.3345Z" fill="#FFD465"/>
<path d="M142.998 107.536C142.963 105.863 141.574 104.51 139.901 104.51H133.563C131.854 104.51 130.465 105.899 130.465 107.608V114.017C130.465 115.726 131.854 117.114 133.563 117.114H139.901C141.61 117.114 142.998 115.726 142.998 114.017V107.608C142.998 107.608 142.998 107.572 142.998 107.536Z" fill="#FFD465"/>
<path d="M139.867 79.4438H133.529C132.888 79.4438 132.283 79.6575 131.784 79.9779C131.606 80.0847 131.464 80.2272 131.321 80.3696C131.179 80.512 131.036 80.6544 130.93 80.8325C130.823 81.0105 130.716 81.1885 130.645 81.3665C130.502 81.7226 130.396 82.1499 130.396 82.5771V88.9861C130.396 89.0217 130.396 89.0573 130.396 89.0929C130.431 90.7664 131.82 92.1194 133.493 92.1194H139.831C141.54 92.1194 142.929 90.7308 142.929 89.0217V82.6127C143 80.8325 141.611 79.4438 139.867 79.4438Z" fill="#FFD465"/>
<path d="M22.1201 63.3857C22.7254 64.2402 23.6868 64.7387 24.7193 64.7387H30.8791C32.2321 64.7387 33.4071 63.9198 33.8699 62.638L39.5668 47.1852L44.6584 60.8577C45.1212 62.1039 46.3318 62.9228 47.6492 62.9228C47.6492 62.9228 47.6492 62.9228 47.6848 62.9228C49.0378 62.9228 50.2128 62.0683 50.6757 60.8221L53.7734 52.2412C54.0226 51.5291 54.0226 50.7458 53.7378 49.9981C53.7378 49.9625 53.7021 49.9269 53.6665 49.8556L45.8333 28.1007C45.3705 26.8189 44.1599 26 42.8069 26H42.7713H36.2555C34.9025 26 33.6919 26.8545 33.229 28.1007L21.6217 60.4661C21.3724 61.463 21.5504 62.5312 22.1201 63.3857Z" fill="#FFD465"/>
<path d="M54.2012 63.3857C54.8065 64.2402 55.7679 64.7387 56.8004 64.7387H63.0314C64.3844 64.7387 65.5594 63.9198 66.0222 62.638L71.7191 47.1852L76.8463 60.8933C77.3092 62.1395 78.5198 62.9584 79.8372 62.9584C79.8372 62.9584 79.8372 62.9584 79.8728 62.9584C81.2258 62.9584 82.4007 62.1039 82.8636 60.8577L85.9613 52.2768C86.2105 51.5291 86.2105 50.7458 85.9257 49.9981C85.8901 49.9269 85.8901 49.8912 85.8545 49.8556L78.0213 28.1007C77.5584 26.8189 76.3478 26 74.9948 26H74.9592H68.4434C67.0904 26 65.8442 26.8545 65.3813 28.1363L57.4769 50.2117L53.8096 60.4661C53.4535 61.463 53.596 62.5312 54.2012 63.3857Z" fill="#FFD465"/>
<path d="M86.3505 63.3858C86.9558 64.2404 87.9171 64.7388 88.9497 64.7388H95.1094C96.4624 64.7388 97.6374 63.9199 98.1003 62.6381L103.797 47.1854L108.924 60.8934C109.387 62.1396 110.598 62.9586 111.915 62.9586C111.915 62.9586 111.915 62.9586 111.951 62.9586C113.304 62.9586 114.479 62.104 114.942 60.8578L118.039 52.2769C118.289 51.5648 118.289 50.7459 118.004 50.0338C117.968 49.9626 117.968 49.927 117.932 49.8914L110.099 28.1365C109.636 26.8547 108.426 26.0357 107.073 26.0357H107.037H100.521C99.4889 26.0357 98.4563 26.5342 97.8866 27.4243C97.6374 27.7804 97.4594 28.1721 97.3882 28.5637L97.3526 28.6349C97.317 28.7061 97.317 28.7774 97.2814 28.8486L85.9232 60.5374C85.6028 61.4631 85.7452 62.5313 86.3505 63.3858Z" fill="#FFD465"/>
<path d="M15.6393 62.9894C15.6393 62.9894 15.6749 62.9894 15.6393 62.9894C16.9923 62.9894 18.2028 62.1349 18.6657 60.8887L21.7634 52.3078C22.0126 51.5601 22.0126 50.7768 21.7278 50.029C21.6922 49.9578 21.6922 49.9222 21.6566 49.8866L13.8234 28.1317C13.3605 26.8499 12.1499 26.031 10.7969 26.031H4.20991C3.17736 26.031 2.18041 26.5295 1.57511 27.4196C0.969821 28.2741 0.827399 29.3779 1.21906 30.3748L12.6484 60.9955C13.1113 62.1705 14.3219 62.9894 15.6393 62.9894Z" fill="#FFD465"/>
<path d="M142.394 29.2045C142.394 27.4242 140.97 26 139.19 26H132.674C131.321 26 130.11 26.8545 129.647 28.1007L123.63 44.7997L118.004 60.4661C117.648 61.463 117.791 62.5312 118.396 63.3857C119.001 64.2402 119.963 64.7387 120.995 64.7387H127.191C128.544 64.7387 129.719 63.9198 130.181 62.638L142.109 30.4151C142.323 30.059 142.394 29.6318 142.394 29.2045Z" fill="#FFD465"/>
<path d="M116.545 78.9096H100.238H91.8708C92.1557 78.9096 92.4405 78.9096 92.7254 78.9452H116.189C117.97 78.9452 119.394 80.3694 119.394 82.1497V114.551C119.394 116.331 117.97 117.755 116.189 117.755H98.173C97.6033 117.826 97.0336 117.862 96.4284 117.862H103.585H108.926H116.51C118.29 117.862 119.75 116.402 119.75 114.622V82.1497C119.786 80.3694 118.326 78.9096 116.545 78.9096Z" fill="#FFD465"/>
<path d="M92.7608 78.9452C92.476 78.9096 92.1911 78.9096 91.9063 78.9096H84.0731H76.1687C76.5604 78.9096 76.952 78.9096 77.3437 78.9452H92.7608Z" fill="#FFD465"/>
<path d="M78.0539 117.791C77.4486 117.862 76.8077 117.898 76.2024 117.898H89.412H96.4619C97.0316 117.898 97.6013 117.862 98.2066 117.791H78.0539Z" fill="#FFD465"/>
<path d="M53.9513 117.791C53.2748 117.862 52.5983 117.898 51.8862 117.898H67.339H73.926H76.1691C76.81 117.898 77.4153 117.862 78.0206 117.791H53.9513Z" fill="#FFD465"/>
<path d="M77.3428 78.9452C76.9511 78.9096 76.5595 78.9096 76.1678 78.9096H70.0437H58.5075H51.1372C51.8137 78.9096 52.4902 78.9096 53.1311 78.9452H77.3428Z" fill="#FFD465"/>
<path d="M53.1306 78.9452C52.4541 78.9096 51.7776 78.9096 51.1367 78.9096H48.0034H32.0166H24.8955C25.5364 78.9096 26.2129 78.9096 26.8538 78.9452H53.1306Z" fill="#FFD465"/>
<path d="M48.5382 117.791C47.9685 117.862 47.3988 117.898 46.8291 117.898H51.8851C52.5616 117.898 53.2737 117.862 53.9502 117.791H48.5382Z" fill="#FFD465"/>
<path d="M26.8548 78.9452C26.2139 78.9096 25.5374 78.9096 24.8965 78.9096H19.342C19.6625 78.9096 19.9473 78.9096 20.2678 78.9452H26.8548Z" fill="#FFD465"/>
<path d="M8.12756 117.791C7.52227 117.862 6.88138 117.898 6.24048 117.898H16.5304H22.7614H32.1968H46.8663C47.436 117.898 48.0056 117.862 48.5753 117.791H8.12756Z" fill="#FFD465"/>
<path d="M6.27623 117.791C4.49595 117.791 3.07174 116.367 3.07174 114.586V82.1854C3.07174 80.4052 4.49595 78.981 6.27623 78.981H20.2692C19.9487 78.9453 19.6639 78.9453 19.3434 78.9453H15.6405H6.24062C5.77775 78.9453 5.38609 79.0522 4.99443 79.1946C4.21111 79.515 3.60582 80.1559 3.28537 80.9036C3.10734 81.2953 3.03613 81.7226 3.03613 82.1498V114.658C3.03613 115.12 3.14295 115.512 3.28537 115.904C3.78385 117.079 4.92322 117.862 6.27623 117.862C6.91712 117.862 7.52241 117.826 8.16331 117.755H6.27623V117.791Z" fill="#FFD465"/>
<path d="M116.224 78.9453H92.7601H77.343H53.0957H26.8189H20.2319H6.27456C4.49429 78.9453 3.07007 80.3696 3.07007 82.1498V114.551C3.07007 116.331 4.49429 117.755 6.27456 117.755H8.12604H48.5382H53.9502H78.0551H98.2078H116.224C118.004 117.755 119.429 116.331 119.429 114.551V82.1498C119.429 80.4052 118.004 78.9453 116.224 78.9453Z" fill="#FFD465"/>
</svg>
