<svg width="300" height="300" viewBox="0 0 300 300" fill="none" xmlns="http://www.w3.org/2000/svg">
<g clip-path="url(#clip0)">
<circle cx="150.296" cy="122.296" r="122.296" fill="#00C6AE"/>
<path fill-rule="evenodd" clip-rule="evenodd" d="M164.603 199.835C164.955 203.028 164.236 206.078 162.521 208.656L161.963 209.495L163.025 209.818C164.957 210.405 167.106 210.691 169.594 210.691C172.155 210.691 174.818 210.381 176.958 210.132L178.328 209.972L177.655 208.938C177.113 208.106 177.013 207.098 176.907 206.032C176.879 205.745 176.849 205.449 176.811 205.155C174.783 189.399 172.22 173.436 169.742 158C169.09 153.938 168.415 149.737 167.761 145.606L165.884 145.669C165.38 153.316 164.89 161.093 164.416 168.614C164.208 171.922 163.999 175.229 163.789 178.536C163.04 186.896 163.299 193.666 164.603 199.835ZM165.369 294.322C162.613 294.322 159.852 294.072 157.162 293.58C148.745 292.044 141.098 288.419 134.592 285.143C134.26 284.979 133.922 284.815 133.576 284.647C131.029 283.408 127.859 281.866 125.872 279.985C123.693 277.921 123.318 275.865 124.692 273.514L124.909 273.142L124.682 272.774C123.259 270.471 123.365 267.622 124.939 265.846L126.263 264.353L124.087 264.554C121.893 264.756 119.682 265.03 117.544 265.295C115.172 265.59 112.718 265.894 110.302 266.098L109.631 266.154L109.476 266.717C109.39 267.03 109.284 267.22 108.539 267.22C107.892 267.22 107.024 267.056 106.104 266.881C104.963 266.665 103.67 266.42 102.423 266.42C101.874 266.42 101.381 266.466 100.914 266.56L100.643 266.614L100.449 266.786C100.326 266.896 100.115 266.964 99.9006 266.964C99.738 266.964 99.5872 266.925 99.4864 266.856L99.1817 266.649L98.7951 266.686C92.0591 267.329 86.2507 268.458 81.0386 270.136L81.015 270.144L80.902 270.186C79.0173 270.893 77.0688 271.625 75.2942 271.625C73.9969 271.625 72.9435 271.241 71.9788 270.417L71.7061 270.184L71.3216 270.181C67.4195 270.15 65.6366 266.194 65.3901 263.542L65.3591 263.208L65.0616 262.991C58.2613 258.029 54.2467 251.214 52.7879 242.157C51.4593 233.907 52.4794 225.209 53.6525 217.788C56.3661 198.557 59.1963 181.317 66.3906 164.966L66.7268 164.202L65.8311 163.922C62.7238 162.951 60.3491 161.793 58.571 160.381L58.4479 160.283L58.2929 160.228C55.7445 159.317 54.4965 155.957 54.1746 154.949L54.1489 154.868L54.1039 154.793C53.5839 153.926 53.464 152.719 53.775 151.483L53.8083 151.35L53.789 151.214C53.6211 150.041 54.1784 148.814 54.7685 147.514C55.0381 146.921 55.3167 146.307 55.5203 145.696C56.2203 143.95 56.9195 142.173 57.5959 140.454C59.1134 136.597 60.6824 132.61 62.3539 128.73L62.5825 128.2L62.0789 127.834C61.2192 127.21 61.5063 126.475 62.746 124.718C63.0389 124.303 63.3159 123.91 63.5266 123.523C65.1157 121.135 66.8188 118.843 68.5895 116.71L68.6259 116.666L68.655 116.619C77.741 101.865 93.8577 93.7391 114.036 93.7391L114.448 93.7398L114.675 93.6209C118.457 91.6435 121.157 88.2506 122.928 83.2485L122.985 83.0891L122.963 82.9234C122.902 82.4624 122.836 81.8579 122.859 81.2714C122.916 79.786 123.586 78.4605 124.696 77.6346C126.801 76.0677 129.997 75.9365 133.091 75.9365L133.535 75.9372C137.49 75.947 140.282 76.5441 142.322 77.8164C144.693 79.2947 146.003 81.681 146.327 85.1116C146.424 86.1381 146.421 87.2015 146.418 88.23L146.417 88.517L146.457 88.6309C146.741 89.4463 147.074 90.2297 147.447 90.9597L147.83 91.7107L148.701 91.3721C149.264 91.1532 149.978 91.0406 150.884 91.028C151.146 91.0227 151.401 91.0203 151.658 91.0203C153.762 91.0203 156.013 91.1873 158.19 91.3488C159.83 91.4705 161.526 91.5965 163.168 91.6524L163.19 91.6532C163.19 91.6532 163.417 91.652 163.519 91.652C167.509 91.652 170.402 92.1976 172.622 93.3692C175.012 94.6304 176.731 96.6548 178.031 99.74C185.003 117.424 187.869 136.472 190.397 153.277C191.831 162.066 192.267 171.075 192.689 179.788C193.135 188.984 193.595 198.493 195.225 207.789L195.354 208.524L196.22 208.475C200.03 208.262 204.147 207.801 208.505 207.314C215.128 206.573 221.975 205.807 228.595 205.807C237.851 205.807 244.869 207.391 250.047 210.647C253.656 213.605 255.524 217.609 255.447 222.23C255.338 228.76 251.366 235.978 245.328 240.621L245.305 240.639C237.672 246.909 223.739 252.346 203.894 256.802C185.645 260.898 166.768 263.125 157.14 264.087L154.757 264.325L156.691 265.541C157.474 266.033 158.188 266.467 158.875 266.866L159.318 267.123L159.803 266.93C161.187 266.378 162.065 266.263 162.559 266.263C162.997 266.263 163.526 266.345 163.555 266.74C163.574 266.998 163.363 267.381 162.917 267.43L160.548 267.687L162.482 268.886C163.774 269.687 165.701 270.652 167.933 271.77C175.235 275.428 186.269 280.956 184.371 285.81L184.246 286.129L184.423 286.43C184.933 287.299 184.976 288.106 184.556 288.896C183.655 290.59 180.836 291.876 178.443 292.399L178.402 292.408L178.362 292.42C174.197 293.682 169.826 294.322 165.369 294.322Z" fill="white"/>
<path fill-rule="evenodd" clip-rule="evenodd" d="M157.356 263.136C157.644 262.882 157.765 262.548 157.496 262.156C156.457 261.002 154.301 261.791 152.96 262.058C152.454 261.691 151.951 261.324 151.467 260.936C151.635 260.028 150.38 259.425 149.865 258.725C149.358 258.209 148.882 257.623 148.275 257.191C146.796 256.188 144.745 256.867 143.028 256.821C141.706 255.358 140.345 253.942 139.087 252.431C140.536 250.313 140.639 247.831 140.157 245.47C162.394 238.134 181.642 224.244 205.691 221.034C206.518 220.914 206.982 220.04 206.776 219.399C205.098 215.918 180.99 224.9 177.387 226.527C166.759 230.951 156.803 236.467 146.473 241.334C144.319 242.329 141.95 242.863 139.595 243.381C135.975 233.052 129.853 223.584 125.158 213.626C125.463 213.167 125.723 212.685 125.943 212.189C125.787 217.666 131.912 217.589 132.758 212.394C132.409 215.102 134.765 220.902 138.164 217.096C138.961 216.14 139.244 214.916 139.379 213.681C139.554 214.535 139.752 215.385 139.972 216.232C140.844 217.91 143.226 215.87 143.78 214.994C144.099 214.944 144.398 214.818 144.616 214.663C150.627 215.389 157.707 215.347 162.117 211.221C169.598 213.716 177.878 211.481 185.443 210.485C200.839 208.945 216.296 206.6 231.83 206.779C238.765 207.129 246.947 208.102 251.334 213.248C256.961 220.665 253.78 230.682 247.573 237.103C232.641 253.54 181.387 260.688 157.356 263.136ZM157.776 269.057C158.048 268.994 158.322 268.936 158.594 268.881C162.952 272.036 183.478 280.229 181.917 285.122C181.365 285.731 180.044 285.869 179.209 286.066C177.755 286.408 176.286 286.704 174.804 286.939C170.011 287.697 165.048 287.829 160.262 286.964C158.501 286.731 156.911 286.078 155.308 285.447C150.125 283.465 144.418 281.275 139.261 279.309C132.709 277.051 121.218 272.6 125.944 265.09C130.422 269.469 136.106 269.087 138.969 263.644C139.956 261.992 140.818 259.764 143.137 259.097C144.36 258.377 145.924 258.228 146.946 259.029C147.02 258.93 147.086 258.79 147.122 258.666C148.275 260.092 149.269 261.593 150.619 262.897C150.155 262.918 145.328 266.025 146.753 266.026C148.467 265.259 150.169 264.619 152.02 264.205C153.361 265.378 154.836 266.469 156.364 267.478C154.88 268.33 153.547 269.374 152.474 270.506C152.382 270.606 152.495 270.735 152.633 270.681C154.298 270.036 156.01 269.469 157.776 269.057ZM179.87 290.218C163.199 296.729 145.55 289.479 131.334 281.749C128.053 280.156 123.737 277.898 124.4 274.148C126.817 277.222 130.801 278.972 134.625 280.49C141.049 283.015 147.516 285.459 153.956 287.953C154.564 289.707 157.473 289.775 159.231 290.164C167.056 291.484 175.467 290.828 182.832 288.197C182.406 289.294 181.011 289.798 179.87 290.218ZM113.357 264.865C112.945 264.911 112.533 264.953 112.122 264.993C112.164 264.519 111.835 264.045 111.307 263.899C111.545 262.894 111.633 261.856 111.505 260.836C112.194 262.384 114.417 261.914 115.829 261.468C117.846 260.991 119.851 260.478 121.844 259.931C122.631 261.201 123.464 262.452 124.487 263.602C120.761 263.89 117.069 264.463 113.357 264.865ZM111.717 259.999C111.618 260.181 111.476 260.373 111.473 260.591C111.373 259.839 111.176 259.095 110.877 258.383C111.157 258.921 111.437 259.46 111.717 259.999ZM109.365 255.963C107.532 253.885 104.143 252.187 101.012 252.766C100.81 252.804 100.805 253.085 101.012 253.12C105.219 253.617 108.914 256.519 109.06 260.271C109.392 261.969 108.033 263.636 108.491 265.265C108.4 265.271 108.308 265.275 108.219 265.28C108.186 265.389 108.156 265.486 108.116 265.571C108.571 265.637 108.705 266.273 108.168 266.386C107.851 266.453 107.519 266.488 107.181 266.503C105.466 266.1 103.656 266.007 102.016 265.412C100.394 264.789 100.799 263.037 100.227 261.823C99.8072 260.424 99.3243 259.031 98.716 257.688C98.672 257.58 98.5037 257.605 98.4896 257.714C98.0604 260.392 98.0745 263.116 98.1783 265.816C97.6154 265.866 97.0557 265.921 96.4942 265.982C96.5306 265.228 93.9285 256.04 92.5575 258.398C93.2477 260.99 93.331 263.698 93.4049 266.365C89.3343 266.949 85.3235 267.817 81.4211 268.999C78.6712 269.724 75.4008 271.868 72.7312 269.93C70.6637 268.443 69.9672 265.85 70.1622 263.643C72.8507 250.585 94.0857 249.059 106.621 250.025C107.805 252.4 109.011 254.767 110.233 257.129C109.98 256.723 109.69 256.332 109.365 255.963ZM66.6108 263.388C66.3812 260.423 66.9551 256.732 69.4817 254.522C75.2645 250.271 83.3617 248.934 90.5878 247.395C93.9538 246.817 97.3658 246.433 100.792 246.242C102.007 246.159 103.551 246.398 104.409 245.534C104.851 246.444 105.299 247.353 105.748 248.262C91.3613 246.623 61.3469 252.316 69.7522 269.452C67.9722 267.775 66.793 265.734 66.6108 263.388ZM138.084 253.586C138.746 255.025 139.555 256.394 140.614 257.646C139.411 258.33 138.43 259.342 137.738 260.428C133.304 270.514 128.562 265.112 122.671 259.7C127.657 258.064 134.26 256.838 138.084 253.586ZM64.2832 261.336C52.7538 251.433 50.5165 234.936 54.7758 221.968C55.1547 217.16 57.0886 212.577 58.8212 208.024C64.3383 194.214 71.5942 180.927 80.2967 168.382C91.0934 170.961 101.871 173.608 112.693 176.102C114.184 176.383 115.676 176.94 117.206 177.02C117.753 177.323 118.301 177.657 118.871 177.951C118.042 181.48 118.806 185.084 118.999 188.635C119.175 191.43 118.828 194.168 118.402 196.934C117.926 200.957 115.965 214.045 119.894 216.441C121.226 216.999 122.416 215.344 122.99 215.8C123.507 215.486 123.99 215.078 124.383 214.628C125.9 218.894 128.38 222.852 129.911 227.122C131.948 233.397 138.64 243.554 137.154 249.54C136.005 253.236 130.977 254.033 127.348 255.241C123.155 256.51 118.915 257.674 114.605 258.62C112.501 254.738 110.49 250.819 108.517 246.886C99.4987 228.738 91.5117 210.211 84.3736 191.464C84.2399 191.048 82.5985 186.539 82.2982 187.797C82.273 187.668 82.0859 187.334 82.0152 187.619C83.2258 192.021 84.4536 196.422 85.7823 200.8C82.5183 200.403 79.009 200.248 76.0217 201.639C75.8677 201.71 75.9809 201.886 76.1332 201.865C79.6708 201.332 83.0828 202.339 86.4804 203.062C91.2522 217.185 97.4092 230.95 103.926 244.543C101.911 243.984 99.5711 244.602 97.4674 244.646C90.8419 245.242 84.2918 246.502 78.0327 248.462C70.1651 250.68 64.6024 253.573 64.2832 261.336ZM57.9358 158.274C55.9989 156.461 54.4768 154.144 54.771 151.687C55.9344 150.338 56.3196 148.578 56.9973 147.018C59.6465 140.493 62.1056 133.917 64.9891 127.462C71.1225 129.102 77.1567 131.069 82.8484 133.653C83.8955 134.118 84.9316 134.6 85.9552 135.1C87.0275 135.622 88.1972 136.53 89.4833 136.27C88.0777 138 85.1832 139.8 84.6942 141.8C84.5889 142.433 85.1046 143.02 85.897 142.879C98.3006 150.54 111.11 158.039 122.834 166.572C131.614 172.616 138.354 177.517 141.365 187.323C143.395 193.675 143.401 200.314 143.102 206.845C143.044 208.114 143.042 209.414 142.925 210.692C143.101 211.648 142.766 213.594 141.53 213.629C141.558 213.86 141.646 214.075 141.786 214.263C141.747 214.309 141.706 214.352 141.664 214.396C141.602 214.135 141.543 213.875 141.486 213.614C140.524 209.908 140.395 205.609 140.555 201.663C140.623 200.532 138.628 200.559 138.516 201.663C138.216 204.646 137.915 207.628 137.615 210.61C137.255 212.542 137.823 215.07 136.046 216.539C134.239 215.087 134.837 212.224 134.925 210.351C135.066 207.296 135.219 204.242 135.349 201.186C135.39 200.218 133.546 199.969 133.337 200.953C132.744 203.76 132.103 206.558 131.412 209.348C130.996 210.427 130.71 215.266 128.628 214.426C127.387 213.689 128.282 209.371 128.119 207.941C128.196 205.11 128.241 202.284 128.48 199.46C128.578 198.321 126.444 198.078 126.152 199.191C125.677 200.991 125.222 202.791 124.81 204.604C123.906 207.659 124.235 211.802 120.971 213.832C119.693 205.895 121.532 198.014 121.79 190.105C121.636 187.543 121.13 185.006 120.683 182.474C120.19 179.674 119.902 176.627 121.058 173.927C120.741 172.718 119.499 175.989 119.383 176.261C118.448 174.658 116.169 174.535 114.368 174.035C110.363 172.908 106.261 172.058 102.209 171.056C91.4642 168.461 80.7068 165.907 69.9464 163.358C65.6479 162.324 61.1229 161.1 57.9358 158.274ZM165.534 200.492C164.051 193.504 164.092 186.424 164.725 179.359C165.422 168.404 166.098 157.445 166.821 146.49C169.961 166.318 173.308 186.122 175.868 206.013C176.05 207.397 176.022 208.862 176.826 210.097C172.385 210.614 167.653 211.135 163.336 209.822C165.23 206.974 165.898 203.731 165.534 200.492ZM187.968 151.275C191.325 170.066 189.41 189.188 192.666 207.958C188.149 208.399 183.667 209.05 179.197 209.767C179.686 207.448 178.758 205.054 178.598 202.719C176.17 186.064 173.489 169.42 169.938 152.911C169.067 148.96 168.186 145.025 167.177 141.096C167.329 138.716 167.463 136.337 167.551 133.956C172.48 131.262 178.038 129.518 183.786 128.639C185.339 136.163 186.891 143.683 187.968 151.275ZM149.11 92.224C148.914 91.9318 148.726 91.6328 148.547 91.3299C149.154 91.3501 149.745 91.3689 150.343 91.4551C150.316 92.2913 150.369 93.1343 150.38 93.9773C150.082 93.3605 149.497 92.7977 149.11 92.224ZM250.493 209.985C236.155 200.92 212.606 206.695 195.997 207.627C192.83 189.573 194.122 171.225 191.171 153.141C188.453 135.075 185.587 116.758 178.76 99.4485C175.942 92.7558 171.068 90.7684 163.044 90.8222C158.971 90.6835 154.665 90.1166 150.708 90.1973C149.84 90.2095 148.933 90.3092 148.15 90.6135C147.049 88.4563 146.451 86.1401 146.15 83.8065C146.131 83.6584 145.914 83.6314 145.849 83.7728C144.919 85.8048 144.819 88.0227 145.326 90.1503C145.692 91.6746 147.873 97.6737 150.406 95.3266C150.607 100.248 149.363 106.126 143.818 108.681C134.128 112.354 120.734 109.009 115.121 101.213C114.036 99.6546 113.101 97.9968 111.899 96.5008C120.269 94.4405 124.966 85.7214 122.995 79.0813C121.776 84.2455 119.555 90.0156 114.022 92.9081C93.8749 92.8691 77.1242 100.848 67.6591 116.215C65.807 118.446 64.0948 120.765 62.5257 123.124C61.6813 124.703 59.2082 126.897 61.3072 128.422C58.8828 134.048 56.7319 139.752 54.4584 145.423C53.8341 147.312 52.4065 149.294 52.6912 151.28C52.3831 152.504 52.3972 153.952 53.1031 155.129C53.7729 157.227 55.2759 160.049 57.768 160.939C59.8827 162.619 62.5572 163.775 65.3463 164.647C57.9078 181.549 55.0763 199.778 52.556 217.636C50.0858 233.26 48.8109 252.264 64.2882 263.555C64.5885 266.786 66.7927 270.902 71.1511 270.937C74.1697 273.514 77.849 272.101 81.2089 270.84C86.88 269.014 92.8279 268.002 98.738 267.437C99.3717 267.868 100.403 267.797 100.968 267.295C104.548 266.577 109.51 269.483 110.233 266.85C114.849 266.461 119.415 265.731 124.026 265.306C122.083 267.498 122.223 270.731 123.687 273.1C119.959 279.476 128.642 283.168 133.952 285.785C141.12 289.393 148.605 292.818 156.803 294.314C164.01 295.632 171.56 295.232 178.514 293.126C182.169 292.328 187.272 289.706 185.104 286.012C187.852 278.983 168.551 271.699 162.874 268.179C165.194 267.928 165.279 263.74 159.243 266.146C158.514 265.722 157.797 265.284 157.088 264.839C181.502 262.398 228.127 255.686 245.796 241.175C255.503 233.713 261.104 218.621 250.493 209.985Z" fill="black"/>
<path fill-rule="evenodd" clip-rule="evenodd" d="M165.166 63.2287C165.105 60.2341 165.037 57.1795 164.525 54.2139C164.025 51.3147 162.648 48.694 160.282 46.5887C155.256 42.1167 147.971 41.0244 141.191 40.0234L129.597 38.3119C126.06 37.7899 122.287 36.9555 118.713 37.6958C116.953 38.0606 115.457 38.9081 114.091 39.9108C112.773 40.8774 111.357 41.9152 110.464 43.2155C109.57 44.5177 109.262 46.0399 108.972 47.5127C108.644 49.1731 108.389 50.8465 108.208 52.5239C107.846 55.8846 107.796 59.2706 108.059 62.6383C108.186 64.2717 108.389 65.9005 108.648 67.522C108.776 68.3261 108.922 69.1282 109.085 69.9274C109.134 70.1631 109.17 70.4241 109.22 70.6877C108.854 71.5922 108.646 72.5288 108.663 73.4615C108.712 76.2089 111.379 77.9386 114.067 78.8673C115.626 79.4057 117.256 79.7716 118.787 80.3732C120.398 81.0059 121.495 82.0316 122.596 83.2017C124.697 85.4334 127.068 87.4391 129.775 89.1125C135.515 92.6605 142.784 94.3386 149.749 93.0649C151.419 92.7593 153.105 92.2847 154.607 91.5697C156.193 90.8148 157.385 89.7209 158.387 88.4275C160.246 86.0265 161.579 83.3228 162.588 80.5716C163.617 77.7651 164.347 74.9535 164.745 72.0271C165.142 69.1103 165.226 66.1637 165.166 63.2287Z" fill="white"/>
<path fill-rule="evenodd" clip-rule="evenodd" d="M128.17 27.88C132.968 27.3061 139.589 29.1714 141.979 32.9323C153.386 30.5937 167.773 30.5171 177.174 38.3022C186.984 47.5371 174.662 59.7133 166.492 62.4586C167.087 64.9727 166.159 81.0791 159.596 88.2634C154.387 94.3507 142.258 97.16 136.645 89.8893L136.601 89.8293C136 88.9896 136.518 89.0165 137.135 89.6411C142.631 93.8443 150.104 93.9161 155.862 89.4803C166.655 81.3726 165.542 61.4931 160.407 49.9925C145.783 48.5958 130.126 52.4502 120.026 62.0229L120.709 65.5986C120.826 66.2077 120.958 66.8164 121.059 67.4277C121.123 67.8194 121.13 68.2089 120.818 68.526C119.788 69.5727 118.051 67.9999 116.623 67.3742C116.201 67.3226 115.778 67.3027 115.364 67.3281C108.499 68.097 109.852 79.6777 117.396 77.6478C118.03 77.3044 118.575 77.4092 118.821 77.9075C120.619 79.34 121.805 81.8949 124.793 84.3557C125.847 85.2788 126.807 86.051 127.992 86.7915C128.689 87.404 130.79 88.0286 130.124 89.0768C128.864 91.4619 121.435 83.9698 120.121 81.8979C116.006 83.3111 111.445 82.8311 107.18 82.4857C84.6803 81.4684 87.684 60.8429 106.127 47.821C109.598 45.5985 113.428 43.7854 117.41 42.3901C117.953 42.1997 117.716 41.4235 117.165 41.6167C114.53 42.54 111.962 43.639 109.514 44.9109L109.51 44.1505C109.507 42.8697 109.53 41.5362 109.786 40.366C109.913 39.5551 110.128 38.689 110.46 38.0374C110.869 36.0398 117.281 29.1831 128.17 27.88ZM115.063 69.9868C115.411 69.6998 116.059 70.042 116.369 70.0335C117.16 70.1276 117.911 70.4181 118.497 70.7766C118.884 70.9651 119.155 71.1421 119.382 71.3049L119.388 71.3034C119.386 71.3034 119.384 71.3049 119.382 71.3053L119.403 71.3179C119.733 71.5217 120.941 72.6699 120.178 72.3611C120.121 72.2968 120.063 72.2351 120.004 72.1745C119.998 72.1828 119.989 72.1909 119.979 72.1988L120.021 72.2542C120.67 73.1025 119.55 72.2087 119.378 71.9713C119.37 71.9771 119.361 71.9809 119.352 71.9851L119.576 72.2225C119.607 72.2562 119.632 72.2832 119.652 72.3059L119.7 72.3456C120.45 72.9866 120.473 73.5634 119.602 72.6158C119.636 72.6604 119.664 72.7078 119.667 72.7497L119.719 72.807C120.403 73.5735 119.847 73.3012 119.507 72.9739L119.478 72.9457L119.484 72.9534C119.8 73.377 119.173 73.0797 119.062 72.8532L119.058 72.8429C118.937 72.7572 118.862 72.661 118.837 72.6367L118.832 72.6326C118.244 72.1086 117.392 71.6652 116.667 71.4637C116.562 71.4464 116.456 71.4324 116.349 71.4226C115.913 71.3381 115.473 71.2802 115.028 71.2489C114.974 71.2433 114.919 71.2085 114.877 71.1636C114.205 71.1439 114.412 70.9041 114.691 70.8596L114.696 70.8588L114.641 70.8548C114.209 70.8181 113.914 70.6834 114.351 70.6008L114.406 70.5912C114.4 70.582 114.394 70.5728 114.388 70.5635C114.014 70.5278 114.258 70.2118 114.465 70.2883C114.378 70.04 114.777 70.164 114.827 70.1271C114.865 70.0904 114.912 70.0581 114.939 70.0563C115.059 69.9826 115.001 69.9892 115.063 69.9868ZM117.351 65.9677L117.264 66.0122C117.193 66.0481 117.12 66.0721 117.047 66.0861C117.15 66.1243 117.252 66.1656 117.353 66.2098C117.351 66.1558 117.35 66.102 117.35 66.0482L117.351 65.9677Z" fill="black"/>
<path fill-rule="evenodd" clip-rule="evenodd" d="M147.797 82.4431C146.763 82.0765 145.841 81.465 145.167 80.6838C144.933 80.4123 144.872 80.1255 144.921 79.8632C144.977 79.5683 145.177 79.301 145.451 79.1217C145.725 78.9419 146.069 78.8532 146.401 78.8984C146.689 78.9377 146.976 79.075 147.203 79.3598L147.251 79.4168C147.652 79.8883 148.174 80.2751 148.769 80.5245C149.342 80.7648 149.984 80.877 150.647 80.8117C151.912 80.6875 152.783 80.093 153.709 79.2856C153.824 79.1837 153.939 79.0786 154.054 78.9717C154.127 78.8749 154.228 78.8127 154.34 78.78C154.465 78.7438 154.606 78.7458 154.735 78.785C154.86 78.8228 154.971 78.8945 155.046 78.9899C155.117 79.0806 155.157 79.1925 155.144 79.3214C155.06 80.1581 154.557 80.9048 153.842 81.4912C153.048 82.1424 151.997 82.5929 151.006 82.7509C149.915 82.925 148.803 82.8003 147.797 82.4431ZM151.521 69.5351C152.682 70.1487 154.45 71.5795 153.202 73.1007C151.732 74.4419 149.616 72.9041 148.573 72.2086C147.606 71.6695 146.519 73.0559 147.416 73.6853C154.952 78.5372 158.01 69.6955 152.108 68.8137C151.458 68.7165 151.217 69.3453 151.521 69.5351ZM138.016 63.8911C138.145 62.5066 140.569 62.1923 140.81 63.5622C141.026 64.7894 140.772 65.9167 140.137 67.0216C139.529 68.0771 138.003 67.5847 137.887 66.6235C137.732 65.3351 137.937 64.7523 138.016 63.8911ZM156.473 63.2781C156.811 62.8931 157.299 62.6303 157.883 62.7789C159.71 63.2431 159.172 65.4987 158.53 66.5966C158.182 67.1928 157.055 67.344 156.545 66.8191C155.715 65.963 155.318 64.2533 156.373 63.4101C156.402 63.3665 156.433 63.3225 156.473 63.2781ZM140.111 57.8332L140.4 57.7893C141.292 57.655 142.402 57.526 143.034 58.1502C143.369 58.4812 143.484 59.0964 143.034 59.4132C142.242 59.9706 141.366 59.7546 140.417 59.8018C139.635 59.8408 138.883 59.9534 138.13 60.1407C136.477 60.5515 135.131 61.3014 133.719 62.1249C133.534 62.2329 133.345 62.0269 133.433 61.8762C134.248 60.4882 135.827 59.3481 137.409 58.6531C138.253 58.2821 139.177 57.9744 140.111 57.8332ZM154.807 57.2114L155.028 57.2508C157.432 57.6877 160.555 58.5605 161.693 60.6138C161.737 60.9041 161.691 60.9664 161.653 61.007L161.641 61.0205C161.61 61.0553 161.586 61.1031 161.441 61.1426C161.401 61.1343 161.36 61.1255 161.319 61.1161C160.798 60.9972 160.385 60.8334 159.985 60.6634L159.552 60.4778C159.049 60.2634 158.542 60.0568 158.004 59.9043C156.857 59.579 155.677 59.3498 154.479 59.2274C154.22 59.2009 153.97 59.1247 153.772 58.994C153.585 58.87 153.442 58.6984 153.377 58.4702C153.292 58.1749 153.317 57.9513 153.499 57.6849C153.636 57.4848 153.832 57.3462 154.057 57.2665C154.286 57.1853 154.548 57.1662 154.807 57.2114Z" fill="black"/>
</g>
<defs>
<clipPath id="clip0">
<rect width="299.998" height="300" fill="white"/>
</clipPath>
</defs>
</svg>
