<svg width="300" height="300" viewBox="0 0 300 300" fill="none" xmlns="http://www.w3.org/2000/svg">
<g clip-path="url(#clip0)">
<circle cx="150.28" cy="122.28" r="122.28" fill="#FFF4CC"/>
<path fill-rule="evenodd" clip-rule="evenodd" d="M235.377 318.823C239.815 318.595 238.03 310.352 237.711 307.324C234.197 296.266 235.023 284.202 233.641 272.611C232.78 261.791 231.674 251.005 230.743 240.194C228.915 218.247 215.79 173.57 200.812 166.385C198.925 157.594 191.132 149.389 181.272 149.389C174.548 140.937 166.453 134.988 156.071 136.189C151.781 136.397 147.62 141.228 143.509 142.161C141.207 142.498 120.78 141.631 116.688 144.211C113.838 145.765 111.265 148.636 112.103 152.292C113.44 156.721 109.285 151.929 100.616 156.656C82.9399 167.928 93.5026 183.008 93.9707 183.475C82.9399 199.771 73.2985 212.992 68.8375 232.91C65.9464 247.698 66.2719 262.964 63.8495 277.827C62.9942 282.981 61.6821 287.959 60.2622 292.963C58.7234 299.513 57.9752 315.839 57.127 315.985C55.582 316.392 58.0199 319.76 59.657 319.763C105.046 327.757 151.15 320.094 196.783 318.842C209.643 318.367 222.517 318.258 235.377 318.823Z" fill="white"/>
<path fill-rule="evenodd" clip-rule="evenodd" d="M166.582 184.914C166.603 184.693 166.884 184.694 166.905 184.914L167.226 188.198C167.615 192.21 167.991 196.214 168.263 200.244C168.602 205.27 168.829 210.295 168.938 215.332C169.32 232.875 169.395 250.427 169.428 267.974C171.663 267.81 173.898 267.652 176.134 267.498C177.651 267.394 179.169 267.295 180.686 267.196L184.556 266.947L186.149 266.843C187.225 266.773 188.448 266.485 189.201 267.497C189.502 267.903 189.653 268.429 189.372 268.911C188.724 270.02 187.729 269.982 186.604 270.03C185.542 270.075 184.48 270.12 183.418 270.163C181.142 270.257 178.866 270.346 176.59 270.414C174.2 270.485 171.813 270.543 169.424 270.586C169.4 277.994 169.112 285.392 168.799 292.792L168.658 296.122C168.276 305.127 167.865 314.139 167.282 323.132C167.234 323.869 166.253 323.867 166.205 323.132C165.548 313.005 165.114 302.856 164.684 292.715C164.373 285.362 164.191 278.007 164.105 270.651C163.789 270.654 163.473 270.658 163.158 270.659C154.194 270.701 145.233 270.742 136.27 270.653C136.285 270.672 136.299 270.691 136.309 270.715C136.958 272.341 137.02 274.416 137.004 276.161C136.986 278.162 136.732 280.139 136.298 282.085C134.742 289.057 130.731 295.301 126.162 300.464L126.013 300.631C124.936 301.841 123.699 303.055 123.037 304.595C122.362 306.168 122.127 308.007 121.793 309.697L121.755 309.891L120.45 316.286C120.036 318.318 119.919 321.281 118.404 322.746C116.991 324.114 115.119 323.399 114.454 321.639C113.935 320.265 114.452 318.755 114.76 317.382L117.169 306.627C117.565 304.874 117.998 303.108 118.852 301.533C119.728 299.919 121.011 298.749 122.32 297.552C124.8 295.286 127.076 292.691 129.001 289.882C130.925 287.074 132.569 283.978 133.722 280.723C134.3 279.093 134.773 277.4 135.099 275.694C135.41 274.074 135.407 272.397 135.739 270.795C135.761 270.684 135.849 270.608 135.95 270.575C135.926 270.503 135.963 270.407 136.057 270.4L143.388 269.9C149.904 269.454 156.42 268.996 162.93 268.473L164.081 268.385C163.991 258.57 164.067 248.754 164.234 238.936C164.387 229.933 164.39 220.927 164.642 211.925C164.768 207.457 165.038 203 165.339 198.541C165.647 193.981 166.139 189.46 166.582 184.914ZM97.7509 237.117C97.6728 236.617 98.2651 236.307 98.5382 236.765C101.66 241.989 103.165 247.663 103.799 253.777C104.359 259.172 104.194 264.645 103.915 270.055C103.618 275.825 103.27 281.593 102.919 287.36L102.38 296.203L101.026 318.373C100.929 319.959 100.59 321.401 99.3039 322.138C99.1411 322.282 98.9713 322.412 98.7736 322.524C98.0788 322.918 97.1574 322.719 96.7557 321.962L96.9167 322.075C97.057 322.169 96.8995 322.038 96.444 321.682L96.0575 321.151C95.7766 320.703 95.5972 320.262 95.5251 319.729C95.413 318.901 95.5582 317.993 95.6091 317.161L96.4966 302.624C97.1868 291.322 97.9927 280.024 98.6002 268.717C98.8831 263.447 99.0814 258.172 98.9472 252.893C98.8136 247.643 98.5616 242.304 97.7509 237.117ZM124.755 139.801L124.928 139.77C131.128 138.677 137.87 138.881 143.536 142.055C143.583 142.081 143.562 142.163 143.509 142.161L141.685 142.084C135.911 141.844 130.155 141.702 124.478 143.142L123.897 143.291C121.853 143.82 119.718 144.468 118.076 145.902C116.506 147.272 115.724 149.387 114.973 151.333L114.872 151.59C114.11 153.512 113.145 155.335 111.474 156.537C109.309 158.094 106.706 157.903 104.223 158.114C99.8532 158.487 96.2802 161.85 94.5025 165.965C93.4261 168.457 92.9669 171.251 92.876 173.976C92.8294 175.363 92.8227 176.805 92.9968 178.183C93.0524 178.623 93.5655 180.229 93.8271 180.19C94.4084 180.105 94.9398 180.426 95.1211 180.92C96.557 179.447 98.0342 178.016 99.559 176.637C103.36 173.201 107.454 170.086 111.765 167.409C115.056 165.366 118.527 163.342 122.121 161.811C121.836 161.805 121.555 161.865 121.283 162.015C121.164 162.081 121.046 161.923 121.14 161.818C122.272 160.553 123.628 160.373 124.995 160.71C125.287 160.612 125.579 160.517 125.872 160.426C126.018 160.381 126.09 160.594 125.971 160.677L125.635 160.905C127.127 161.435 128.591 162.477 129.75 163.3C133.08 165.663 136.011 168.552 138.982 171.386L139.522 171.9C142.137 174.379 144.819 176.789 147.79 178.778C149.346 179.819 150.979 180.782 152.693 181.498C154.163 182.113 156.556 182.5 157.244 184.149C157.856 184.938 157.6 185.945 156.883 186.477C155.675 187.889 153.257 186.976 151.817 186.388C150.081 185.679 148.399 184.827 146.795 183.827C143.681 181.886 140.81 179.472 138.135 176.905C135.341 174.224 132.706 171.375 129.989 168.609C128.812 167.411 127.662 166.184 126.483 164.988L125.891 164.392C125.289 163.793 124.432 162.859 123.515 162.294C121.788 163.388 120.035 164.436 118.323 165.558C115.935 167.124 113.616 168.803 111.333 170.538C106.939 173.877 102.774 177.616 98.9081 181.624C91.8177 188.975 85.7768 197.369 80.4996 206.257L80.0988 206.934C77.1 212.021 74.2641 217.272 72.2534 222.894C70.0409 229.079 68.9649 235.584 68.3804 242.15C67.8002 248.669 67.6046 255.221 66.9562 261.734C66.2913 268.413 64.9812 274.946 63.4911 281.466L63.1357 283.011C61.7874 288.851 60.3957 294.69 59.7026 300.667C59.3326 303.86 59.1101 307.096 59.1604 310.314C59.2109 313.552 59.69 316.717 60.0765 319.921C60.2247 321.148 59.0873 322.172 58.0697 322.335C56.8992 322.521 55.8937 321.728 55.5299 320.574C54.3958 316.975 54.1898 312.997 54.2254 309.22C54.2612 305.385 54.7222 301.575 55.3708 297.807C56.6464 290.394 58.6149 283.134 60.2617 275.81C61.713 269.354 62.687 262.887 63.212 256.274C63.7571 249.412 64.0834 242.528 65.0777 235.716C66.0591 228.991 67.9057 222.568 70.6904 216.436C73.226 210.853 76.3868 205.598 79.7005 200.504C83.7246 194.319 88.1443 188.433 93.0845 183.071C92.6408 183.05 92.1851 182.898 91.7667 182.621C90.4865 181.773 89.8902 180.115 89.707 178.6C89.2779 175.058 89.3815 171.359 90.2396 167.895C91.6238 162.308 95.2164 157.343 100.423 155.329C101.763 154.811 103.188 154.622 104.608 154.584C105.956 154.549 107.428 154.735 108.728 154.282C110.798 153.559 111.685 150.971 112.463 149.009L112.498 148.919C113.495 146.418 114.691 144.275 116.85 142.714C119.152 141.048 122.038 140.29 124.755 139.801ZM183.665 149.689C185.529 149.003 187.858 149.626 189.68 150.225C191.71 150.893 193.585 152.124 195.194 153.586C196.89 155.127 198.292 157.03 199.283 159.156L199.378 159.361C200.283 161.333 201.313 164.04 200.857 166.207C200.844 166.268 200.829 166.328 200.812 166.385C204.508 168.317 207.922 170.737 210.895 173.804C214.357 177.376 217.288 181.44 219.768 185.83C229.62 203.269 231.354 224.212 232.517 244.099L232.807 249.141C233.439 260.03 234.179 270.892 236.099 281.63L236.239 282.405C238.292 293.648 241.231 304.977 240.933 316.51C240.844 319.966 236.034 319.942 235.895 316.51C235.37 303.592 232.531 291.119 230.608 278.403C227.225 256.03 228.92 232.966 224.127 210.817C222.246 202.125 219.332 193.694 215.171 185.936C213.116 182.103 210.764 178.399 208.009 175.093C205.639 172.247 203.176 169.509 200.406 167.117C199.521 168.059 197.753 167.579 197.291 166.207C196.973 165.264 197.066 164.161 196.862 163.173C196.673 162.257 196.413 161.348 196.065 160.484C195.373 158.764 194.357 157.112 193.184 155.719C191.917 154.214 190.461 152.964 188.831 151.931C187.19 150.892 185.396 150.581 183.665 149.821C183.607 149.796 183.602 149.713 183.665 149.689ZM190.904 269.255C190.907 269.165 191.008 269.122 191.07 269.182C191.723 269.821 192.118 270.737 192.598 271.522C193.153 272.427 193.735 273.314 194.346 274.177C195.569 275.908 196.93 277.539 198.303 279.137C199.58 280.623 200.94 282.046 202.351 283.388C203.881 284.842 205.594 286.139 206.984 287.749C209.882 291.109 210.351 295.72 210.962 300.049L211.029 300.518C211.402 303.087 211.737 305.663 212.038 308.243C212.184 309.498 212.331 310.754 212.45 312.012L212.486 312.411C212.593 313.642 212.622 314.892 211.956 315.968C211.242 317.119 209.621 317.523 208.657 316.419C207.001 314.522 207.312 311.154 207.096 308.714C206.918 306.696 206.716 304.681 206.49 302.669L206.375 301.663C206.109 299.375 205.892 297.04 205.399 294.791C204.964 292.81 204.136 291.315 202.777 289.88C201.408 288.435 199.985 287.086 198.721 285.529C197.38 283.878 196.171 282.108 195.081 280.26C194.149 278.68 193.402 276.96 192.718 275.243L192.605 274.956C191.943 273.281 190.852 271.101 190.904 269.255ZM214.816 197.304C214.83 197.071 215.155 197.067 215.16 197.304C215.201 199.314 215.241 201.323 215.28 203.333C215.596 219.526 215.401 235.757 216.931 251.895C217.653 259.504 218.982 267.001 220.52 274.466C221.307 278.287 222.132 282.098 222.916 285.918C223.681 289.642 224.5 293.384 225.107 297.142C225.703 300.836 226.236 304.558 226.476 308.299L226.505 308.787C226.608 310.599 227.101 313.264 226.161 314.871C225.142 316.611 223.193 316.642 222.101 314.981C221.077 313.422 221.332 310.647 221.151 308.787C220.967 306.891 220.772 304.994 220.551 303.103C220.12 299.414 219.552 295.733 218.961 292.07C217.731 284.44 215.946 276.906 214.629 269.288C213.279 261.482 212.32 253.62 212.279 245.672C212.239 237.657 213.038 229.658 213.441 221.66C213.851 213.538 214.317 205.421 214.816 197.304ZM142.772 146.938C143.181 145.474 144.626 144.559 146.036 144.97C147.328 145.347 148.394 147.012 147.889 148.436C147.338 149.99 146.375 151.316 145.563 152.729C144.813 154.034 143.719 155.062 142.954 156.344L143.796 157.308C144.218 157.789 144.64 158.267 145.067 158.736L146.536 160.352C147.68 161.607 148.831 162.856 150.014 164.068C153.494 167.632 157.029 171.079 160.927 174.131C161.814 174.825 162.708 175.516 163.627 176.163L163.97 176.404C164.601 176.842 165.304 177.273 166.066 177.199C167.917 177.019 169.59 174.931 170.862 173.632L170.928 173.564C174.08 170.38 176.999 166.898 179.551 163.154C180.118 162.322 180.667 161.476 181.201 160.62C179.967 159.09 180.262 156.103 180.194 154.247C180.146 152.942 180.142 151.637 180.135 150.331L180.132 150.068C180.117 149.223 180.081 148.412 180.598 147.716C180.628 147.676 180.69 147.677 180.728 147.699C181.436 148.092 181.654 148.751 181.956 149.491L181.987 149.568C182.355 150.455 182.707 151.351 183.063 152.243C183.435 153.178 183.777 154.126 184.124 155.072C184.285 155.512 184.439 155.953 184.589 156.397C184.681 156.681 184.776 156.963 184.873 157.245L184.896 157.266C185.025 157.382 185.134 157.505 185.228 157.631C185.622 157.841 185.936 158.223 186.083 158.784C186.404 160.006 185.741 161.003 185.149 161.972C182.747 165.913 180.008 169.669 176.964 173.075C175.452 174.768 173.862 176.384 172.206 177.917L171.916 178.183C170.429 179.541 168.814 180.826 166.827 181.144C164.502 181.515 162.61 180.288 160.83 178.874L160.653 178.732C158.965 177.376 157.312 175.972 155.71 174.504C152.445 171.51 149.338 168.295 146.581 164.769C143.899 161.339 141.247 157.503 139.594 153.376C139.493 153.124 139.758 152.861 139.966 153.071C140.774 153.887 141.551 154.748 142.318 155.62C142.34 154.337 142.117 153.043 142.241 151.752C142.392 150.182 142.349 148.449 142.772 146.938Z" fill="black"/>
<path fill-rule="evenodd" clip-rule="evenodd" d="M196.734 91.8011C196.188 84.3037 197.034 76.4454 194.312 69.3192C189.565 57.4953 176.254 53.553 165.934 49.0515C161.8 47.7544 147.889 47.5731 143.049 45.8565C132.093 41.9713 129.476 37.3421 120.77 44.7397C119.301 46.0034 118.382 47.3768 117.711 49.2534L117.738 49.2614C117.547 50.0438 117.752 50.8244 118.184 51.4206C114.409 55.5171 112.83 61.6586 114.767 67.1117C121.086 81.302 120.789 88.9747 118.753 104.23C116.094 118.472 122.17 123.674 132.234 131.423C131.824 132.267 131.739 133.388 132.273 134.132C143.91 151.495 165.851 159.785 184.651 150.972C192.282 147.366 195.688 138.737 197.633 130.951C199.897 122.233 200.593 113.047 198.75 104.166C198.006 100.059 197.037 95.9817 196.734 91.8011Z" fill="white"/>
<path fill-rule="evenodd" clip-rule="evenodd" d="M129.611 8.73582C131.023 8.5106 132.09 9.44113 132.597 10.7527L132.624 10.8233C132.787 11.2696 132.968 11.7037 133.164 12.1304C136.698 10.2892 141.742 10.7623 143.979 14.491C145.575 17.1541 144.601 20.3146 144 23.1385L143.605 24.9992C144.368 25.5152 144.944 26.4392 144.917 27.3959L144.914 27.4696L144.753 30.0643C145.263 29.5156 145.729 28.9181 146.145 28.2817C146.432 27.7232 146.742 27.1745 147.075 26.6429C149.034 23.5141 153.432 26.2332 151.815 29.5839C151.505 30.2301 151.156 30.8422 150.782 31.4324C150.359 32.303 150.012 33.198 149.746 34.1174C150.511 34.471 151.099 35.2562 151.161 36.4414C151.306 39.2093 149.937 41.5187 147.759 42.9697C147.119 43.3965 146.457 43.4794 145.858 43.3209C145.752 43.472 145.646 43.6232 145.545 43.7769C146.413 44.5256 147.197 45.3791 147.87 46.3253C149.895 46.0034 151.933 45.8522 153.97 45.8473C156.459 44.5524 159.441 44.5792 162.116 45.0645C163.839 45.3766 165.492 45.9839 167.187 46.4204C168.974 46.8789 170.789 46.8959 172.596 47.2081C174.875 47.6007 176.873 48.7176 178.129 50.5003C179.509 50.5442 180.961 51.1441 182.164 51.9586C184.966 53.8559 187.752 55.78 190.548 57.6894C191.62 58.4225 192.021 59.5928 191.824 60.8981L191.811 60.9816L191.717 61.523L191.938 61.8562C192.793 63.1388 193.724 64.4823 194.277 65.8979C195.302 67.466 196.227 69.1097 197.047 70.8045C198.152 73.0822 199.064 75.4965 199.682 77.9742C199.836 78.6009 199.989 79.2325 200.09 79.8714C200.235 80.7738 200.012 81.4736 199.891 82.3394C199.739 83.4368 199.684 84.5488 199.523 85.6486C199.415 86.3778 198.832 86.7363 198.221 86.7558C198.451 88.6116 198.616 90.4796 198.774 92.333C198.997 94.9814 199.149 97.6371 199.28 100.293C199.955 101.334 201.335 102.158 202.332 102.444C203.712 102.836 205.159 102.41 206.464 101.91C207.284 101.595 207.957 102.69 207.557 103.422C206.301 105.719 203.614 105.709 201.579 104.692C200.717 104.263 199.962 103.641 199.401 102.831C199.436 103.602 199.473 104.373 199.509 105.146L199.544 105.846C199.957 114.023 200.851 122.482 199.404 130.578C196.898 144.603 185.967 155.282 172.615 156.111C165.608 156.546 159.773 154.349 156.871 153.123C153.97 151.897 155.097 149.398 157.112 150.112C160.582 151.343 166.956 153.177 172.661 152.385C186.106 150.519 197.507 143.383 196.335 112.652C196.169 108.294 195.658 103.934 195.548 99.5758C195.442 95.3155 195.481 91.0527 195.304 86.7948L195.245 85.342C195.176 83.6445 195.102 81.9392 194.983 80.2397C194.838 79.5812 194.718 78.9131 194.542 78.2668C194.062 76.5085 193.435 74.799 192.656 73.1676C192.484 73.3066 192.291 73.4066 192.082 73.4456C190.495 73.748 189.006 73.6626 187.52 72.9603C186.827 72.6359 186.216 72.2043 185.646 71.6702C185.375 71.4191 185.194 71.1752 185.051 70.9216C184.333 70.9338 183.614 70.7045 183.164 70.1558C182.65 69.5304 182.565 68.8845 182.766 68.2865L182.787 68.2269L182.736 68.2073C182.13 69.873 180.922 71.3386 179.597 72.3287C177.502 73.8992 174.881 74.3528 172.369 74.3942C169.594 74.4381 166.668 73.9845 163.931 73.5212C163.207 73.3993 162.488 73.2602 161.783 73.0725C161.756 73.1017 161.728 73.1359 161.698 73.1651C159.349 75.5526 156.044 76.1671 153.063 74.8039C151.34 74.0162 149.895 72.7481 148.618 71.2947C148.6 72.0555 148.563 72.8164 148.501 73.57L148.476 73.8692C148.348 75.2726 148.104 76.7613 147.105 77.7742C145.49 79.4154 143.148 78.757 141.285 77.6889C141.287 77.7401 141.287 77.7937 141.287 77.8474C141.79 79.6617 142.295 81.4785 142.801 83.2953L142.91 83.6823C143.277 84.9724 143.68 86.2641 143.791 87.6142C144.002 90.1943 142.385 92.7427 139.684 91.877C138.267 91.4245 137.132 90.1596 136.043 89.1466L135.357 88.5165C137.132 94.679 138.363 101.061 138.478 107.492C138.485 107.84 138.203 108.104 137.89 108.116C137.16 108.148 136.374 107.994 135.639 107.684C135.598 107.682 135.557 107.679 135.513 107.672C134.259 107.479 133.095 106.999 132.068 106.289C132.305 107.087 132.41 107.943 132.348 108.838C132.332 109.055 132.013 109.13 131.967 108.891C131.374 105.797 127.964 103.458 125.024 104.051C121.868 104.687 119.544 107.57 118.974 110.85C118.363 114.374 119.532 118.449 121.698 121.168C122.695 122.421 124.007 123.467 125.564 123.731C126.276 123.85 127.015 123.809 127.707 123.594C128.001 123.501 128.276 123.372 128.556 123.25C128.965 123.075 129.443 123.048 129.829 122.863C130.704 122.446 131.583 123.301 131.14 124.255C130.754 125.087 130.408 125.647 129.767 126.077C130.286 126.75 130.757 127.686 130.931 127.937C131.822 129.215 132.727 130.422 133.742 131.59C134.776 132.776 135.904 133.858 137.096 134.861L137.597 135.281C138.745 136.248 139.745 137.144 140.555 138.531C141.193 139.626 140.366 141.111 139.17 141.094C135.426 141.038 132.704 137.546 130.766 134.495C130.49 134.058 130.231 133.598 129.99 133.124C129.902 133.273 129.806 133.412 129.698 133.539L129.911 134.149C130.545 135.943 127.815 137.116 127.022 135.441C126.446 134.227 125.777 133.071 125.033 131.978C124.594 131.912 124.165 131.63 123.926 131.264C123.322 130.335 122.645 129.396 122.073 128.406C121.756 128.086 121.43 127.779 121.097 127.479C121 127.569 120.901 127.659 120.807 127.754C120.389 128.767 119.872 129.691 119.232 130.561L119.094 130.747C117.867 132.39 116.268 134.071 114.289 134.473C113.685 134.595 113.104 133.797 113.639 133.288C115.024 131.966 116.662 131.066 117.939 129.591C118.568 128.864 119.145 128.063 119.642 127.224L119.755 127.03C119.838 126.886 119.923 126.742 120.01 126.596C119.434 126.179 118.857 125.76 118.281 125.34C116.694 126.78 114.627 127.438 112.872 128.631L112.697 128.752C111.11 129.879 109.438 127.386 110.711 126.018C112.113 124.516 113.284 122.724 114.527 121.054C113.942 119.911 113.666 118.56 113.562 117.194C113.521 116.808 113.49 116.421 113.458 116.034C112.566 116.049 111.671 115.725 110.913 115.166L110.626 114.949C109.705 115.261 108.738 115.412 107.812 115.386C105.635 115.317 104.744 112.676 106.106 111.006C107.495 109.299 109.928 108.926 111.855 109.755C111.917 109.721 111.981 109.684 112.043 109.647C111.951 109.199 111.971 108.792 112.076 108.434L112.046 108.216C111.622 107.526 111.343 106.738 111.238 105.905C111.154 105.245 111.171 104.591 111.315 103.94C111.363 103.723 111.462 103.499 111.538 103.273C111.381 102.853 111.289 102.419 111.261 101.982C111.217 101.927 111.173 101.87 111.132 101.808C110.176 100.383 110.369 98.6654 111.279 97.512C111.283 97.4386 111.29 97.3652 111.299 97.2922C111.246 97.1649 111.197 97.0364 111.152 96.9064C110.263 95.9541 109.61 94.8082 109.732 93.3882C109.804 92.5527 110.127 91.8006 110.616 91.2385C110.53 90.9659 110.521 90.6501 110.626 90.3864C109.845 88.1804 109.944 85.5235 110.506 83.0563C110.382 82.6808 110.318 82.2735 110.332 81.8419C110.396 80.0105 111.889 78.3278 113.657 78.3497C113.87 78.3517 114.07 78.3812 114.261 78.4243L114.264 78.3807C114.332 77.831 114.474 77.3231 114.682 76.8673C114.58 76.828 114.485 76.7717 114.402 76.6968C113.269 77.3387 112.07 77.8293 110.812 78.1637C109.888 78.4095 108.941 77.2938 109.516 76.3725C109.782 75.945 110.077 75.5611 110.394 75.2104C109.943 75.2131 109.485 75.2456 109.023 75.3087C108.191 75.4233 107.263 74.821 106.724 74.0065C106.053 74.6991 105.38 75.3892 104.707 76.0793C103.003 77.8327 100.428 76.5427 100.16 74.2308C99.652 74.087 99.1788 73.8431 98.7631 73.4944C96.0759 74.7332 93.1844 75.4136 90.2285 75.5428C88.1063 75.6355 86.866 73.0115 87.8582 71.1581C88.5243 69.9144 89.3511 68.7975 90.3043 67.8269C88.8252 68.3073 87.2978 68.6536 85.7383 68.8755C84.8954 68.995 83.7034 68.2537 83.3658 67.4319C82.0751 64.2714 82.1853 60.9767 83.6713 57.9016C83.7287 57.7797 83.793 57.6626 83.855 57.5455C84.0089 57.1383 84.1766 56.7359 84.358 56.3408C82.5298 54.3168 82.3713 51.3075 83.3566 48.7883C82.9616 48.1079 82.81 47.2885 83.0787 46.5472C83.8435 44.4134 84.946 42.4429 86.3378 40.7505C86.2046 40.4774 86.0874 40.1872 85.9887 39.875C85.2055 37.351 86.1127 34.3051 87.9432 32.5469C89.0939 31.4397 90.4168 30.7764 91.8293 30.3521C92.4241 29.2352 93.189 28.228 94.0801 27.3794C94.1145 27.2989 94.149 27.2184 94.188 27.1379C95.5753 24.3627 98.1017 22.8752 100.81 22.5313C100.915 21.4461 101.604 20.4097 102.606 20.0731C102.881 19.1343 103.292 18.2368 103.857 17.4223C104.746 16.1396 106.223 15.5348 107.615 16.3761C108.377 16.837 109.108 17.3662 109.792 17.9515C110.099 17.7984 110.448 17.6994 110.841 17.6678L110.94 17.6613L113.205 17.5394C114.154 17.0931 115.1 16.6249 116.048 16.1688C116.618 15.6689 117.254 15.2519 117.948 14.9422C118.733 14.5935 119.537 14.3959 120.343 14.3301C120.998 14.1033 121.657 13.9033 122.328 13.7473C123.903 13.3815 125.552 13.1766 127.188 13.1937C127.221 12.7443 127.238 12.2895 127.234 11.8293L127.231 11.5988C127.194 10.1234 128.304 8.94554 129.611 8.73582ZM128.023 126.779C127.798 126.83 127.571 126.872 127.344 126.901C127.413 127.081 127.481 127.262 127.548 127.442C127.732 127.552 127.918 127.657 128.104 127.755C128.049 127.423 128.017 127.089 128.023 126.779ZM116.224 123.056L116.071 123.354C116.046 123.403 116.022 123.452 115.998 123.499C116.322 123.472 116.648 123.48 116.969 123.519L116.968 123.482C116.927 123.467 116.886 123.454 116.846 123.433C116.624 123.32 116.418 123.193 116.224 123.056ZM122.601 109.435C124.633 109.561 126.354 109.892 128.202 110.836L128.361 110.918C129.994 111.779 132.695 113.369 132.468 115.649C132.403 116.298 131.96 116.981 131.262 116.929C129.349 116.79 128.256 114.742 126.96 113.464C125.653 112.176 124.048 110.852 122.465 109.967C122.242 109.842 122.33 109.448 122.573 109.435L122.601 109.435ZM113.386 79.3934C112.899 79.4105 113.063 79.9129 113.313 79.4934C113.334 79.4593 113.359 79.4251 113.386 79.3934ZM139.669 45.8566C135.058 45.9853 130.417 48.8763 126.963 51.7986C123.957 54.3409 121.362 57.3648 119.064 60.6241C118.473 62.2473 117.966 63.9043 117.537 65.5736C117.254 66.6759 117.077 67.7903 116.841 68.9023L116.767 69.2433C116.582 69.612 116.443 70.0088 116.343 70.4187C116.762 70.8645 117.305 71.1837 117.903 71.3352C118.096 71.3839 118.256 71.4895 118.382 71.6295C118.864 70.7765 119.284 69.8761 119.529 68.9216L119.538 68.8775C120.463 67.2682 121.469 65.7089 122.546 64.2031C125.518 60.0451 128.791 56.2555 132.725 53.1023C135.708 50.7124 139.043 48.8395 142.59 47.6226C141.722 46.8791 140.736 46.2909 139.669 45.8566Z" fill="black"/>
<path fill-rule="evenodd" clip-rule="evenodd" d="M175.623 136.47C174.079 135.802 172.702 134.686 171.695 133.261C171.344 132.766 171.254 132.242 171.327 131.764C171.41 131.226 171.709 130.738 172.118 130.411C172.528 130.083 173.041 129.921 173.537 130.004C173.968 130.076 174.397 130.326 174.737 130.846L174.808 130.95C175.406 131.81 176.187 132.515 177.076 132.97C177.933 133.409 178.891 133.613 179.883 133.494C181.771 133.268 183.073 132.183 184.457 130.71C184.628 130.524 184.8 130.333 184.973 130.138C185.081 129.961 185.233 129.847 185.4 129.788C185.587 129.722 185.798 129.726 185.991 129.797C186.177 129.866 186.343 129.997 186.455 130.171C186.561 130.336 186.621 130.54 186.602 130.775C186.475 132.302 185.723 133.664 184.656 134.734C183.47 135.922 181.898 136.744 180.419 137.032C178.788 137.349 177.127 137.122 175.623 136.47ZM181.188 112.923C182.922 114.042 185.565 116.652 183.699 119.427C181.503 121.874 178.341 119.069 176.783 117.8C175.338 116.817 173.714 119.346 175.055 120.494C186.314 129.345 190.884 113.216 182.065 111.607C181.094 111.429 180.733 112.577 181.188 112.923ZM161.011 102.627C161.202 100.101 164.825 99.5276 165.185 102.027C165.508 104.265 165.128 106.322 164.178 108.337C163.271 110.263 160.99 109.365 160.818 107.611C160.586 105.261 160.891 104.198 161.011 102.627ZM188.586 101.509C189.091 100.806 189.82 100.327 190.694 100.598C193.424 101.445 192.619 105.559 191.661 107.562C191.14 108.65 189.456 108.926 188.695 107.968C187.455 106.406 186.861 103.288 188.438 101.749C188.48 101.67 188.528 101.589 188.586 101.509ZM164.14 91.5756L164.571 91.4955C165.905 91.2505 167.563 91.0152 168.507 92.1538C169.008 92.7576 169.18 93.8799 168.507 94.4579C167.324 95.4748 166.016 95.0807 164.598 95.1668C163.429 95.238 162.306 95.4433 161.18 95.785C158.711 96.5344 156.699 97.9025 154.59 99.4047C154.313 99.6017 154.03 99.2259 154.162 98.9511C155.38 96.419 157.739 94.3391 160.103 93.0713C161.364 92.3945 162.744 91.8331 164.14 91.5756ZM186.098 90.4414L186.428 90.5131C190.019 91.3102 194.685 92.9025 196.386 96.6481C196.451 97.1778 196.383 97.2913 196.327 97.3654L196.308 97.3901C196.262 97.4535 196.226 97.5408 196.01 97.6128C195.95 97.5977 195.889 97.5816 195.828 97.5645C195.048 97.3476 194.431 97.0488 193.834 96.7387L193.187 96.4C192.436 96.0089 191.678 95.6321 190.875 95.3539C189.161 94.7604 187.398 94.3422 185.608 94.119C185.22 94.0706 184.846 93.9316 184.552 93.6933C184.272 93.4671 184.058 93.1539 183.961 92.7377C183.834 92.1989 183.871 91.7911 184.143 91.3051C184.347 90.9401 184.64 90.6871 184.977 90.5419C185.32 90.3938 185.71 90.3589 186.098 90.4414Z" fill="black"/>
<path fill-rule="evenodd" clip-rule="evenodd" d="M160.726 137.998C162.586 133.373 166.644 129.973 171.317 128.731C174.748 127.82 178.35 127.849 181.847 128.211C183.68 128.399 185.646 128.553 187.373 129.275C188.848 129.893 190.05 131.06 190.953 132.429C192.029 134.053 192.761 135.91 193.275 137.815C193.347 138.085 193.416 138.358 193.48 138.632C193.257 140.069 192.782 141.292 191.529 142.195C190.306 143.077 188.847 143.438 187.392 143.566C187.249 143.493 187.112 143.418 186.985 143.342C184.718 141.964 183.123 138.708 180.262 139.148C177.708 139.542 176.028 142.953 174.509 144.954C169.635 145.557 164.765 144.001 160.799 141.042C160.598 140.029 160.586 139.008 160.726 137.998ZM196.793 134.49C196.403 133.328 195.912 132.203 195.329 131.143C193.405 127.637 190.451 124.844 186.944 123.248C178.648 119.476 167.913 122.135 161.213 128.32C158.925 130.435 156.61 133.543 155.911 136.885C155.702 136.929 155.504 137.045 155.342 137.207C150.501 133.971 145.517 130.858 141.616 126.372C138.783 123.113 136.813 119.256 135.606 115.018C135.508 114.669 134.978 114.72 134.994 115.106C134.999 115.196 135.003 115.287 135.008 115.377C134.957 115.211 134.719 115.296 134.7 115.457C134.051 120.606 133.239 126.065 133.987 131.24C134.434 134.328 135.756 136.589 137.522 139.031C139.414 141.647 141.556 144.081 143.747 146.415C145.137 147.897 146.589 149.606 148.291 150.692C150.27 151.954 152.516 152.914 154.628 153.888C156.777 154.881 158.958 155.799 161.181 156.595C165.624 158.192 170.216 159.295 174.888 159.779C178.629 160.164 182.905 160.584 186.49 159.09C189.237 157.945 191.455 155.875 193.215 153.385C195.13 150.673 196.644 147.583 197.481 144.325C198.351 140.941 196.976 135.035 196.793 134.49Z" fill="black"/>
</g>
<defs>
<clipPath id="clip0">
<rect width="299.998" height="300" fill="white"/>
</clipPath>
</defs>
</svg>
